<?xml version="1.0" encoding="UTF-8"?>
<!DOCTYPE svg PUBLIC "-//W3C//DTD SVG 1.1//EN" "http://www.w3.org/Graphics/SVG/1.1/DTD/svg11.dtd">
<svg xmlns="http://www.w3.org/2000/svg" version="1.1" width="512px" height="512px" style="shape-rendering:geometricPrecision; text-rendering:geometricPrecision; image-rendering:optimizeQuality; fill-rule:evenodd; clip-rule:evenodd" xmlns:xlink="http://www.w3.org/1999/xlink">
<g><path style="opacity:1" fill="#c4c7d5" d="M 131.5,-0.5 C 139.167,-0.5 146.833,-0.5 154.5,-0.5C 133.084,4.93033 120.25,18.597 116,40.5C 115.333,123.5 115.333,206.5 116,289.5C 120.576,312.241 134.076,326.241 156.5,331.5C 139.633,334.281 124.299,330.781 110.5,321C 100.919,312.672 95.4187,302.172 94,289.5C 93.3333,206.5 93.3333,123.5 94,40.5C 98.0442,18.9611 110.544,5.2944 131.5,-0.5 Z"/></g>
<g><path style="opacity:0.996" fill="#d9dcec" d="M 154.5,-0.5 C 229.5,-0.5 304.5,-0.5 379.5,-0.5C 400.456,5.2944 412.956,18.9611 417,40.5C 417.667,123.5 417.667,206.5 417,289.5C 413.526,311.975 400.693,325.808 378.5,331C 347.502,331.5 316.502,331.667 285.5,331.5C 270.833,331.5 256.167,331.5 241.5,331.5C 236.167,331.5 230.833,331.5 225.5,331.5C 202.5,331.5 179.5,331.5 156.5,331.5C 134.076,326.241 120.576,312.241 116,289.5C 115.333,206.5 115.333,123.5 116,40.5C 120.25,18.597 133.084,4.93033 154.5,-0.5 Z"/></g>
<g><path style="opacity:1" fill="#d75457" d="M 200.5,52.5 C 189.085,56.085 181.918,63.7517 179,75.5C 178.333,136.5 178.333,197.5 179,258.5C 180.642,262.3 183.142,265.3 186.5,267.5C 182.5,267.5 178.5,267.5 174.5,267.5C 169.556,266.39 166.389,263.39 165,258.5C 164.333,197.167 164.333,135.833 165,74.5C 170.77,57.5894 182.604,50.2561 200.5,52.5 Z"/></g>
<g><path style="opacity:1" fill="#ee5d61" d="M 200.5,52.5 C 243.835,52.3333 287.168,52.5 330.5,53C 341.667,56.1667 348.833,63.3333 352,74.5C 352.667,135.833 352.667,197.167 352,258.5C 350.253,263.083 347.086,266.083 342.5,267.5C 290.5,267.5 238.5,267.5 186.5,267.5C 183.142,265.3 180.642,262.3 179,258.5C 178.333,197.5 178.333,136.5 179,75.5C 181.918,63.7517 189.085,56.085 200.5,52.5 Z"/></g>
<g><path style="opacity:1" fill="#8c84a3" d="M 204.5,67.5 C 240.168,67.3333 275.835,67.5 311.5,68C 317.872,70.239 319.705,74.4056 317,80.5C 315.786,82.0488 314.286,83.2155 312.5,84C 276.167,84.6667 239.833,84.6667 203.5,84C 196.671,78.0031 197.004,72.5031 204.5,67.5 Z"/></g>
<g><path style="opacity:1" fill="#c3d9e4" d="M 202.5,104.5 C 201.878,105.627 201.045,106.627 200,107.5C 199.333,129.833 199.333,152.167 200,174.5C 200.698,175.691 201.531,176.691 202.5,177.5C 198.818,177.665 195.152,177.499 191.5,177C 190.299,176.097 189.465,174.931 189,173.5C 188.333,151.833 188.333,130.167 189,108.5C 189.465,107.069 190.299,105.903 191.5,105C 195.152,104.501 198.818,104.335 202.5,104.5 Z"/></g>
<g><path style="opacity:1" fill="#d6f2fe" d="M 202.5,104.5 C 243.168,104.333 283.835,104.5 324.5,105C 326,105.833 327.167,107 328,108.5C 328.667,130.167 328.667,151.833 328,173.5C 327.535,174.931 326.701,176.097 325.5,177C 284.501,177.5 243.501,177.667 202.5,177.5C 201.531,176.691 200.698,175.691 200,174.5C 199.333,152.167 199.333,129.833 200,107.5C 201.045,106.627 201.878,105.627 202.5,104.5 Z"/></g>
<g><path style="opacity:1" fill="#fcec84" d="M 204.5,207.5 C 218.51,206.667 224.01,213 221,226.5C 215.879,233.712 209.379,235.212 201.5,231C 194.023,221.977 195.023,214.144 204.5,207.5 Z"/></g>
<g><path style="opacity:1" fill="#fcec84" d="M 302.5,207.5 C 315.178,206.346 321.011,212.012 320,224.5C 314.779,233.907 307.612,235.74 298.5,230C 292.267,221.125 293.601,213.625 302.5,207.5 Z"/></g>
<g><path style="opacity:1" fill="#958aa8" d="M 174.5,267.5 C 178.5,267.5 182.5,267.5 186.5,267.5C 238.5,267.5 290.5,267.5 342.5,267.5C 336.355,268.49 330.022,268.823 323.5,268.5C 313.5,268.5 303.5,268.5 293.5,268.5C 270.167,268.5 246.833,268.5 223.5,268.5C 223.666,273.844 223.499,279.177 223,284.5C 218.771,295.464 211.271,298.631 200.5,294C 197.567,291.736 195.4,288.902 194,285.5C 193.501,279.843 193.334,274.176 193.5,268.5C 186.978,268.823 180.645,268.49 174.5,267.5 Z"/></g>
<g><path style="opacity:1" fill="#8986a6" d="M 293.5,268.5 C 303.5,268.5 313.5,268.5 323.5,268.5C 323.666,273.844 323.499,279.177 323,284.5C 320.758,291.571 315.925,295.571 308.5,296.5C 301.101,295.6 296.267,291.6 294,284.5C 293.501,279.177 293.334,273.844 293.5,268.5 Z"/></g>
<g><path style="opacity:1" fill="#7b7995" d="M 225.5,331.5 C 230.833,331.5 236.167,331.5 241.5,331.5C 241.333,387.501 241.5,443.501 242,499.5C 243.594,505.255 247.094,509.255 252.5,511.5C 246.833,511.5 241.167,511.5 235.5,511.5C 230.766,509.261 227.599,505.594 226,500.5C 225.5,444.168 225.333,387.834 225.5,331.5 Z"/></g>
<g><path style="opacity:0.989" fill="#8885a5" d="M 241.5,331.5 C 256.167,331.5 270.833,331.5 285.5,331.5C 285.667,387.834 285.5,444.168 285,500.5C 283.401,505.594 280.234,509.261 275.5,511.5C 267.833,511.5 260.167,511.5 252.5,511.5C 247.094,509.255 243.594,505.255 242,499.5C 241.5,443.501 241.333,387.501 241.5,331.5 Z"/></g>
</svg>
