<?xml version="1.0" encoding="UTF-8"?>
<!DOCTYPE svg PUBLIC "-//W3C//DTD SVG 1.1//EN" "http://www.w3.org/Graphics/SVG/1.1/DTD/svg11.dtd">
<svg xmlns="http://www.w3.org/2000/svg" version="1.1" width="512px" height="512px" style="shape-rendering:geometricPrecision; text-rendering:geometricPrecision; image-rendering:optimizeQuality; fill-rule:evenodd; clip-rule:evenodd" xmlns:xlink="http://www.w3.org/1999/xlink">
<g><path style="opacity:0.997" fill="#6ba7fe" d="M 154.5,-0.5 C 188.167,-0.5 221.833,-0.5 255.5,-0.5C 255.5,9.5 255.5,19.5 255.5,29.5C 223.498,29.3334 191.498,29.5 159.5,30C 150,32.8333 143.833,39 141,48.5C 140.333,122.167 140.333,195.833 141,269.5C 143.4,279.567 149.566,286.067 159.5,289C 191.498,289.5 223.498,289.667 255.5,289.5C 255.5,299.5 255.5,309.5 255.5,319.5C 250.5,319.5 245.5,319.5 240.5,319.5C 210.45,319.969 180.45,319.469 150.5,318C 131,311.833 118.167,299 112,279.5C 110.345,200.877 110.012,122.21 111,43.5C 117.015,20.3188 131.515,5.65211 154.5,-0.5 Z"/></g>
<g><path style="opacity:1" fill="#2681fe" d="M 255.5,-0.5 C 289.167,-0.5 322.833,-0.5 356.5,-0.5C 379.485,5.65211 393.985,20.3188 400,43.5C 400.988,122.21 400.655,200.877 399,279.5C 392.833,299 380,311.833 360.5,318C 330.55,319.469 300.55,319.969 270.5,319.5C 265.5,319.5 260.5,319.5 255.5,319.5C 255.5,309.5 255.5,299.5 255.5,289.5C 287.502,289.667 319.502,289.5 351.5,289C 361,286.167 367.167,280 370,270.5C 370.667,196.5 370.667,122.5 370,48.5C 367.167,39 361,32.8333 351.5,30C 319.502,29.5 287.502,29.3334 255.5,29.5C 255.5,19.5 255.5,9.5 255.5,-0.5 Z"/></g>
<g><path style="opacity:1" fill="#f3f3f5" d="M 255.5,29.5 C 255.5,39.5 255.5,49.5 255.5,59.5C 235.113,59.0475 214.779,59.5475 194.5,61C 183.667,65.1667 176.167,72.6667 172,83.5C 170.354,128.121 170.021,172.787 171,217.5C 174.155,226.671 180.655,230.671 190.5,229.5C 190.334,235.842 190.5,242.175 191,248.5C 196.431,259.794 204.598,262.294 215.5,256C 217.377,253.749 218.877,251.249 220,248.5C 220.5,242.175 220.666,235.842 220.5,229.5C 232.167,229.5 243.833,229.5 255.5,229.5C 255.5,249.5 255.5,269.5 255.5,289.5C 223.498,289.667 191.498,289.5 159.5,289C 149.566,286.067 143.4,279.567 141,269.5C 140.333,195.833 140.333,122.167 141,48.5C 143.833,39 150,32.8333 159.5,30C 191.498,29.5 223.498,29.3334 255.5,29.5 Z"/></g>
<g><path style="opacity:1" fill="#cdcddc" d="M 255.5,29.5 C 287.502,29.3334 319.502,29.5 351.5,30C 361,32.8333 367.167,39 370,48.5C 370.667,122.5 370.667,196.5 370,270.5C 367.167,280 361,286.167 351.5,289C 319.502,289.5 287.502,289.667 255.5,289.5C 255.5,269.5 255.5,249.5 255.5,229.5C 267.167,229.5 278.833,229.5 290.5,229.5C 290.116,236.589 290.616,243.589 292,250.5C 297.9,260.158 305.733,261.992 315.5,256C 317.377,253.749 318.877,251.249 320,248.5C 320.5,242.175 320.666,235.842 320.5,229.5C 330.094,231.033 336.594,227.366 340,218.5C 340.667,174.5 340.667,130.5 340,86.5C 335.735,72.5683 326.568,63.7349 312.5,60C 293.503,59.5001 274.503,59.3334 255.5,59.5C 255.5,49.5 255.5,39.5 255.5,29.5 Z"/></g>
<g><path style="opacity:1" fill="#6ba7fe" d="M 255.5,59.5 C 255.5,69.5 255.5,79.5 255.5,89.5C 237.786,89.1804 220.12,89.5137 202.5,90.5C 201.808,91.0253 201.308,91.6919 201,92.5C 200.5,108.163 200.333,123.83 200.5,139.5C 218.833,139.5 237.167,139.5 255.5,139.5C 255.5,169.5 255.5,199.5 255.5,229.5C 243.833,229.5 232.167,229.5 220.5,229.5C 210.5,229.5 200.5,229.5 190.5,229.5C 180.655,230.671 174.155,226.671 171,217.5C 170.021,172.787 170.354,128.121 172,83.5C 176.167,72.6667 183.667,65.1667 194.5,61C 214.779,59.5475 235.113,59.0475 255.5,59.5 Z"/></g>
<g><path style="opacity:1" fill="#2681fe" d="M 255.5,59.5 C 274.503,59.3334 293.503,59.5001 312.5,60C 326.568,63.7349 335.735,72.5683 340,86.5C 340.667,130.5 340.667,174.5 340,218.5C 336.594,227.366 330.094,231.033 320.5,229.5C 310.5,229.5 300.5,229.5 290.5,229.5C 278.833,229.5 267.167,229.5 255.5,229.5C 255.5,199.5 255.5,169.5 255.5,139.5C 273.833,139.5 292.167,139.5 310.5,139.5C 310.667,123.497 310.5,107.497 310,91.5C 309.5,91 309,90.5 308.5,90C 290.836,89.5001 273.17,89.3334 255.5,89.5C 255.5,79.5 255.5,69.5 255.5,59.5 Z"/></g>
<g><path style="opacity:1" fill="#d4e6ff" d="M 255.5,89.5 C 255.5,106.167 255.5,122.833 255.5,139.5C 237.167,139.5 218.833,139.5 200.5,139.5C 200.333,123.83 200.5,108.163 201,92.5C 201.308,91.6919 201.808,91.0253 202.5,90.5C 220.12,89.5137 237.786,89.1804 255.5,89.5 Z"/></g>
<g><path style="opacity:1" fill="#abcdff" d="M 255.5,89.5 C 273.17,89.3334 290.836,89.5001 308.5,90C 309,90.5 309.5,91 310,91.5C 310.5,107.497 310.667,123.497 310.5,139.5C 292.167,139.5 273.833,139.5 255.5,139.5C 255.5,122.833 255.5,106.167 255.5,89.5 Z"/></g>
<g><path style="opacity:1" fill="#616173" d="M 190.5,229.5 C 200.5,229.5 210.5,229.5 220.5,229.5C 220.666,235.842 220.5,242.175 220,248.5C 218.877,251.249 217.377,253.749 215.5,256C 204.598,262.294 196.431,259.794 191,248.5C 190.5,242.175 190.334,235.842 190.5,229.5 Z"/></g>
<g><path style="opacity:1" fill="#525263" d="M 290.5,229.5 C 300.5,229.5 310.5,229.5 320.5,229.5C 320.666,235.842 320.5,242.175 320,248.5C 318.877,251.249 317.377,253.749 315.5,256C 305.733,261.992 297.9,260.158 292,250.5C 290.616,243.589 290.116,236.589 290.5,229.5 Z"/></g>
<g><path style="opacity:1" fill="#cdcedc" d="M 240.5,319.5 C 245.5,319.5 250.5,319.5 255.5,319.5C 255.5,373.5 255.5,427.5 255.5,481.5C 250.5,481.5 245.5,481.5 240.5,481.5C 240.5,427.5 240.5,373.5 240.5,319.5 Z"/></g>
<g><path style="opacity:1" fill="#a6a7c0" d="M 255.5,319.5 C 260.5,319.5 265.5,319.5 270.5,319.5C 270.5,373.5 270.5,427.5 270.5,481.5C 265.5,481.5 260.5,481.5 255.5,481.5C 255.5,427.5 255.5,373.5 255.5,319.5 Z"/></g>
<g><path style="opacity:0.997" fill="#f4f4f6" d="M 240.5,481.5 C 245.5,481.5 250.5,481.5 255.5,481.5C 255.5,491.5 255.5,501.5 255.5,511.5C 230.167,511.5 204.833,511.5 179.5,511.5C 170.546,506.158 168.046,498.492 172,488.5C 173.765,485.527 176.265,483.36 179.5,482C 199.831,481.5 220.164,481.333 240.5,481.5 Z"/></g>
<g><path style="opacity:1" fill="#cecedd" d="M 255.5,481.5 C 260.5,481.5 265.5,481.5 270.5,481.5C 290.836,481.333 311.169,481.5 331.5,482C 340.475,487.152 342.975,494.652 339,504.5C 336.985,507.412 334.485,509.745 331.5,511.5C 306.167,511.5 280.833,511.5 255.5,511.5C 255.5,501.5 255.5,491.5 255.5,481.5 Z"/></g>
</svg>
