<?xml version="1.0" encoding="UTF-8"?>
<!DOCTYPE svg PUBLIC "-//W3C//DTD SVG 1.1//EN" "http://www.w3.org/Graphics/SVG/1.1/DTD/svg11.dtd">
<svg xmlns="http://www.w3.org/2000/svg" version="1.1" width="512px" height="512px" style="shape-rendering:geometricPrecision; text-rendering:geometricPrecision; image-rendering:optimizeQuality; fill-rule:evenodd; clip-rule:evenodd" xmlns:xlink="http://www.w3.org/1999/xlink">
<g><path style="opacity:0.996" fill="#ce857a" d="M 235.5,-0.5 C 248.833,-0.5 262.167,-0.5 275.5,-0.5C 301.871,2.51129 326.871,10.178 350.5,22.5C 329.439,27.0093 308.105,30.8427 286.5,34C 217.949,51.5511 174.116,94.3844 155,162.5C 152.876,176.764 155.376,190.098 162.5,202.5C 125.833,202.5 89.1667,202.5 52.5,202.5C 52.1616,185.865 54.1616,169.531 58.5,153.5C 58.3764,152.893 58.0431,152.56 57.5,152.5C 80.4108,74.0895 131.411,24.5895 210.5,4C 218.949,2.34581 227.282,0.845812 235.5,-0.5 Z"/></g>
<g><path style="opacity:0.998" fill="#d6948c" d="M 426.5,91.5 C 413.964,110.89 399.298,128.723 382.5,145C 374.553,152.127 366.22,158.627 357.5,164.5C 322.392,187.758 283.725,200.425 241.5,202.5C 215.167,202.5 188.833,202.5 162.5,202.5C 155.376,190.098 152.876,176.764 155,162.5C 174.116,94.3844 217.949,51.5511 286.5,34C 308.105,30.8427 329.439,27.0093 350.5,22.5C 360.563,27.6144 370.063,33.6144 379,40.5C 394.186,33.8255 408.686,25.9921 422.5,17C 437.665,12.8263 446.665,18.4929 449.5,34C 444.468,54.2287 436.802,73.3953 426.5,91.5 Z"/></g>
<g><path style="opacity:0.997" fill="#e8b5b0" d="M 426.5,91.5 C 438.476,110.458 447.476,130.791 453.5,152.5C 455.05,161.476 456.55,170.809 458,180.5C 458.5,187.826 458.666,195.159 458.5,202.5C 419.976,202.392 386.31,189.725 357.5,164.5C 366.22,158.627 374.553,152.127 382.5,145C 399.298,128.723 413.964,110.89 426.5,91.5 Z"/></g>
<g><path style="opacity:0.995" fill="#febe9d" d="M 57.5,152.5 C 58.0431,152.56 58.3764,152.893 58.5,153.5C 54.1616,169.531 52.1616,185.865 52.5,202.5C 89.1667,202.5 125.833,202.5 162.5,202.5C 188.833,202.5 215.167,202.5 241.5,202.5C 201.003,203.499 160.337,203.832 119.5,203.5C 119.879,215.238 120.879,226.905 122.5,238.5C 112.275,248.606 110.775,259.94 118,272.5C 123.482,278.482 129.982,282.815 137.5,285.5C 169.494,349.855 220.827,389.189 291.5,403.5C 284.58,420.59 272.913,433.423 256.5,442C 254.193,441.358 251.859,440.358 249.5,439C 245.343,436.336 241.343,433.503 237.5,430.5C 230.03,422.908 224.03,414.241 219.5,404.5C 218.311,403.571 216.978,403.238 215.5,403.5C 145.989,387.153 96.4894,346.487 67,281.5C 63.6011,272.637 60.6011,263.637 58,254.5C 23.6799,254.177 4.51321,237.01 0.5,203C 4.37162,168.956 23.3716,152.123 57.5,152.5 Z"/></g>
<g><path style="opacity:0.988" fill="#febe9d" d="M 453.5,253.5 C 452.903,253.265 452.57,252.765 452.5,252C 456.949,235.806 458.949,219.306 458.5,202.5C 458.666,195.159 458.5,187.826 458,180.5C 456.55,170.809 455.05,161.476 453.5,152.5C 487.628,152.123 506.628,168.956 510.5,203C 506.688,236.978 487.688,253.812 453.5,253.5 Z"/></g>
<g><path style="opacity:0.999" fill="#fed3bc" d="M 357.5,164.5 C 386.31,189.725 419.976,202.392 458.5,202.5C 458.949,219.306 456.949,235.806 452.5,252C 452.57,252.765 452.903,253.265 453.5,253.5C 435.784,316.743 397.117,362.243 337.5,390C 323.743,395.643 309.743,400.143 295.5,403.5C 294.167,403.5 292.833,403.5 291.5,403.5C 220.827,389.189 169.494,349.855 137.5,285.5C 150.263,287.648 162.263,285.481 173.5,279C 182.96,271.795 186.626,262.295 184.5,250.5C 187.675,250.16 189.841,248.493 191,245.5C 191.667,239.167 191.667,232.833 191,226.5C 185.867,219.925 180.867,219.925 176,226.5C 175.501,230.486 175.334,234.486 175.5,238.5C 157.833,226.5 140.167,226.5 122.5,238.5C 120.879,226.905 119.879,215.238 119.5,203.5C 160.337,203.832 201.003,203.499 241.5,202.5C 283.725,200.425 322.392,187.758 357.5,164.5 Z"/></g>
<g><path style="opacity:1" fill="#384144" d="M 184.5,250.5 C 177.214,249.984 174.214,245.984 175.5,238.5C 175.334,234.486 175.501,230.486 176,226.5C 180.867,219.925 185.867,219.925 191,226.5C 191.667,232.833 191.667,239.167 191,245.5C 189.841,248.493 187.675,250.16 184.5,250.5 Z"/></g>
<g><path style="opacity:1" fill="#384244" d="M 335.5,238.5 C 336.81,245.918 333.81,249.918 326.5,250.5C 323.325,250.16 321.159,248.493 320,245.5C 319.333,239.167 319.333,232.833 320,226.5C 325.049,219.846 330.049,219.846 335,226.5C 335.499,230.486 335.666,234.486 335.5,238.5 Z"/></g>
<g><path style="opacity:1" fill="#fe8e9e" d="M 175.5,238.5 C 174.214,245.984 177.214,249.984 184.5,250.5C 186.626,262.295 182.96,271.795 173.5,279C 162.263,285.481 150.263,287.648 137.5,285.5C 129.982,282.815 123.482,278.482 118,272.5C 110.775,259.94 112.275,248.606 122.5,238.5C 140.167,226.5 157.833,226.5 175.5,238.5 Z"/></g>
<g><path style="opacity:1" fill="#fe8e9e" d="M 326.5,250.5 C 333.81,249.918 336.81,245.918 335.5,238.5C 351.224,227.497 367.557,226.664 384.5,236C 398.831,246.131 401.331,258.631 392,273.5C 378.168,286.4 362.335,289.566 344.5,283C 330.267,276.7 324.267,265.866 326.5,250.5 Z"/></g>
<g><path style="opacity:1" fill="#343f42" d="M 232.5,235.5 C 237.538,234.448 241.538,235.948 244.5,240C 254.246,245.626 262.913,244.292 270.5,236C 281.001,234.82 284.168,238.987 280,248.5C 270.544,257.325 259.378,260.492 246.5,258C 239.304,255.66 233.471,251.493 229,245.5C 228.182,241.469 229.349,238.136 232.5,235.5 Z"/></g>
<g><path style="opacity:0.993" fill="#56d9fd" d="M 215.5,403.5 C 216.978,403.238 218.311,403.571 219.5,404.5C 224.03,414.241 230.03,422.908 237.5,430.5C 223.23,448.382 214.397,468.715 211,491.5C 210.5,498.158 210.334,504.825 210.5,511.5C 204.167,511.5 197.833,511.5 191.5,511.5C 191.831,503.472 191.498,495.472 190.5,487.5C 178.276,479.893 166.609,471.56 155.5,462.5C 167.539,434.795 187.539,415.128 215.5,403.5 Z"/></g>
<g><path style="opacity:0.997" fill="#7ce2fe" d="M 291.5,403.5 C 292.833,403.5 294.167,403.5 295.5,403.5C 323.461,415.128 343.461,434.795 355.5,462.5C 344.391,471.56 332.724,479.893 320.5,487.5C 319.502,495.472 319.169,503.472 319.5,511.5C 283.167,511.5 246.833,511.5 210.5,511.5C 210.334,504.825 210.5,498.158 211,491.5C 214.397,468.715 223.23,448.382 237.5,430.5C 241.343,433.503 245.343,436.336 249.5,439C 251.859,440.358 254.193,441.358 256.5,442C 272.913,433.423 284.58,420.59 291.5,403.5 Z"/></g>
<g><path style="opacity:0.989" fill="#febf9d" d="M 155.5,462.5 C 166.609,471.56 178.276,479.893 190.5,487.5C 191.498,495.472 191.831,503.472 191.5,511.5C 176.5,511.5 161.5,511.5 146.5,511.5C 145.54,494.308 148.54,477.974 155.5,462.5 Z"/></g>
<g><path style="opacity:0.992" fill="#fed4bd" d="M 355.5,462.5 C 362.46,477.974 365.46,494.308 364.5,511.5C 349.5,511.5 334.5,511.5 319.5,511.5C 319.169,503.472 319.502,495.472 320.5,487.5C 332.724,479.893 344.391,471.56 355.5,462.5 Z"/></g>
</svg>
