<?xml version="1.0" encoding="UTF-8"?>
<!DOCTYPE svg PUBLIC "-//W3C//DTD SVG 1.1//EN" "http://www.w3.org/Graphics/SVG/1.1/DTD/svg11.dtd">
<svg xmlns="http://www.w3.org/2000/svg" version="1.1" width="512px" height="512px" style="shape-rendering:geometricPrecision; text-rendering:geometricPrecision; image-rendering:optimizeQuality; fill-rule:evenodd; clip-rule:evenodd" xmlns:xlink="http://www.w3.org/1999/xlink">
<g><path style="opacity:0.995" fill="#0d2b75" d="M 511.5,140.5 C 511.5,158.5 511.5,176.5 511.5,194.5C 510.023,196.807 508.023,198.64 505.5,200C 500.845,200.499 496.179,200.666 491.5,200.5C 491.5,282.167 491.5,363.833 491.5,445.5C 495.846,445.334 500.179,445.501 504.5,446C 507.621,446.967 509.954,448.8 511.5,451.5C 511.5,454.5 511.5,457.5 511.5,460.5C 510.023,462.807 508.023,464.64 505.5,466C 338.833,466.667 172.167,466.667 5.5,466C 2.97739,464.64 0.977392,462.807 -0.5,460.5C -0.5,457.5 -0.5,454.5 -0.5,451.5C 1.04602,448.8 3.37935,446.967 6.5,446C 10.8206,445.501 15.1539,445.334 19.5,445.5C 19.5,363.833 19.5,282.167 19.5,200.5C 14.8215,200.666 10.1548,200.499 5.5,200C 2.97739,198.64 0.977392,196.807 -0.5,194.5C -0.5,176.5 -0.5,158.5 -0.5,140.5C 1.06914,137.772 3.40247,135.938 6.5,135C 12.0829,134.809 17.5829,134.309 23,133.5C 35.4726,105.083 48.1393,76.7498 61,48.5C 62.214,46.9512 63.714,45.7845 65.5,45C 192.167,44.3333 318.833,44.3333 445.5,45C 449.302,47.0875 451.802,50.2541 453,54.5C 464.392,80.951 476.059,107.284 488,133.5C 493.417,134.309 498.917,134.809 504.5,135C 507.598,135.938 509.931,137.772 511.5,140.5 Z"/></g>
<g><path style="opacity:1" fill="#fb5f50" d="M 76.5,64.5 C 195.834,64.3333 315.167,64.5 434.5,65C 444.733,87.8581 455.066,110.691 465.5,133.5C 325.5,134.833 185.5,134.833 45.5,133.5C 56.034,110.554 66.3673,87.5543 76.5,64.5 Z"/></g>
<g><path style="opacity:1" fill="#fcfcfd" d="M 19.5,155.5 C 176.833,155.5 334.167,155.5 491.5,155.5C 491.5,163.833 491.5,172.167 491.5,180.5C 334.167,180.5 176.833,180.5 19.5,180.5C 19.5,172.167 19.5,163.833 19.5,155.5 Z"/></g>
<g><path style="opacity:1" fill="#fc8f01" d="M 471.5,230.5 C 327.833,230.5 184.167,230.5 40.5,230.5C 40.1667,230.5 39.8333,230.5 39.5,230.5C 39.5,220.5 39.5,210.5 39.5,200.5C 183.5,200.5 327.5,200.5 471.5,200.5C 471.5,210.5 471.5,220.5 471.5,230.5 Z"/></g>
<g><path style="opacity:1" fill="#d3b055" d="M 39.5,230.5 C 39.8333,230.5 40.1667,230.5 40.5,230.5C 40.5,302.167 40.5,373.833 40.5,445.5C 48.5,445.5 56.5,445.5 64.5,445.5C 56.3501,446.493 48.0168,446.826 39.5,446.5C 39.5,374.5 39.5,302.5 39.5,230.5 Z"/></g>
<g><path style="opacity:1" fill="#fcca50" d="M 40.5,230.5 C 184.167,230.5 327.833,230.5 471.5,230.5C 471.5,287.5 471.5,344.5 471.5,401.5C 463.167,401.5 454.833,401.5 446.5,401.5C 446.667,375.165 446.5,348.831 446,322.5C 438.522,286.688 416.522,267.688 380,265.5C 345.011,268.485 323.678,287.152 316,321.5C 315.5,348.165 315.333,374.831 315.5,401.5C 301.735,401.036 288.068,401.536 274.5,403C 273.213,404.41 272.046,405.91 271,407.5C 270.5,420.496 270.333,433.496 270.5,446.5C 262.167,446.5 253.833,446.5 245.5,446.5C 245.992,387.75 245.492,329.083 244,270.5C 242.363,268.19 240.196,266.69 237.5,266C 182.167,265.333 126.833,265.333 71.5,266C 69.3762,267.122 67.5429,268.622 66,270.5C 64.508,328.75 64.008,387.083 64.5,445.5C 56.5,445.5 48.5,445.5 40.5,445.5C 40.5,373.833 40.5,302.167 40.5,230.5 Z"/></g>
<g><path style="opacity:1" fill="#fcca50" d="M 85.5,285.5 C 96.8333,285.5 108.167,285.5 119.5,285.5C 119.5,324.167 119.5,362.833 119.5,401.5C 111.64,402.898 108.806,407.565 111,415.5C 112.251,418.381 114.417,420.214 117.5,421C 142.5,421.667 167.5,421.667 192.5,421C 201.244,416.61 202.578,410.61 196.5,403C 194.655,401.872 192.655,401.372 190.5,401.5C 190.5,363.167 190.5,324.833 190.5,286.5C 201.833,286.5 213.167,286.5 224.5,286.5C 224.5,339.5 224.5,392.5 224.5,445.5C 178.167,445.5 131.833,445.5 85.5,445.5C 85.5,392.167 85.5,338.833 85.5,285.5 Z"/></g>
<g><path style="opacity:1" fill="#6763f6" d="M 139.5,285.5 C 139.5,324.167 139.5,362.833 139.5,401.5C 133.167,401.5 126.833,401.5 120.5,401.5C 120.5,362.833 120.5,324.167 120.5,285.5C 126.833,285.5 133.167,285.5 139.5,285.5 Z"/></g>
<g><path style="opacity:1" fill="#bc9d8d" d="M 139.5,285.5 C 139.833,285.5 140.167,285.5 140.5,285.5C 140.5,323.833 140.5,362.167 140.5,400.5C 150.167,400.5 159.833,400.5 169.5,400.5C 169.5,362.167 169.5,323.833 169.5,285.5C 169.833,285.5 170.167,285.5 170.5,285.5C 170.5,324.167 170.5,362.833 170.5,401.5C 160.167,401.5 149.833,401.5 139.5,401.5C 139.5,362.833 139.5,324.167 139.5,285.5 Z"/></g>
<g><path style="opacity:1" fill="#fcca50" d="M 140.5,285.5 C 150.167,285.5 159.833,285.5 169.5,285.5C 169.5,323.833 169.5,362.167 169.5,400.5C 159.833,400.5 150.167,400.5 140.5,400.5C 140.5,362.167 140.5,323.833 140.5,285.5 Z"/></g>
<g><path style="opacity:1" fill="#6763f6" d="M 170.5,285.5 C 176.833,285.5 183.167,285.5 189.5,285.5C 189.5,324.167 189.5,362.833 189.5,401.5C 183.167,401.5 176.833,401.5 170.5,401.5C 170.5,362.833 170.5,324.167 170.5,285.5 Z"/></g>
<g><path style="opacity:1" fill="#dfb755" d="M 190.5,286.5 C 201.988,285.505 213.655,285.172 225.5,285.5C 225.5,338.833 225.5,392.167 225.5,445.5C 225.167,445.5 224.833,445.5 224.5,445.5C 224.5,392.5 224.5,339.5 224.5,286.5C 213.167,286.5 201.833,286.5 190.5,286.5 Z"/></g>
<g><path style="opacity:1" fill="#fbfdfd" d="M 390.5,286.5 C 390.5,324.5 390.5,362.5 390.5,400.5C 383.833,400.5 377.167,400.5 370.5,400.5C 370.5,362.833 370.5,325.167 370.5,287.5C 373.356,285.994 376.523,285.328 380,285.5C 383.523,285.707 387.023,286.04 390.5,286.5 Z"/></g>
<g><path style="opacity:1" fill="#66cbd0" d="M 370.5,287.5 C 370.5,325.167 370.5,362.833 370.5,400.5C 359.167,400.5 347.833,400.5 336.5,400.5C 336.5,375.167 336.5,349.833 336.5,324.5C 338.595,310.473 345.595,299.64 357.5,292C 361.474,289.398 365.807,287.898 370.5,287.5 Z"/></g>
<g><path style="opacity:1" fill="#69ccd1" d="M 390.5,286.5 C 410.386,291.613 422.053,304.279 425.5,324.5C 425.5,349.833 425.5,375.167 425.5,400.5C 413.833,400.5 402.167,400.5 390.5,400.5C 390.5,362.5 390.5,324.5 390.5,286.5 Z"/></g>
<g><path style="opacity:1" fill="#4e92b1" d="M 336.5,324.5 C 336.5,349.833 336.5,375.167 336.5,400.5C 347.833,400.5 359.167,400.5 370.5,400.5C 377.167,400.5 383.833,400.5 390.5,400.5C 402.167,400.5 413.833,400.5 425.5,400.5C 425.5,375.167 425.5,349.833 425.5,324.5C 426.498,349.995 426.831,375.661 426.5,401.5C 396.167,401.5 365.833,401.5 335.5,401.5C 335.169,375.661 335.502,349.995 336.5,324.5 Z"/></g>
<g><path style="opacity:1" fill="#122c74" d="M 119.5,401.5 C 119.833,401.5 120.167,401.5 120.5,401.5C 126.833,401.5 133.167,401.5 139.5,401.5C 149.833,401.5 160.167,401.5 170.5,401.5C 176.833,401.5 183.167,401.5 189.5,401.5C 189.833,401.5 190.167,401.5 190.5,401.5C 192.655,401.372 194.655,401.872 196.5,403C 202.578,410.61 201.244,416.61 192.5,421C 167.5,421.667 142.5,421.667 117.5,421C 114.417,420.214 112.251,418.381 111,415.5C 108.806,407.565 111.64,402.898 119.5,401.5 Z"/></g>
<g><path style="opacity:1" fill="#fefefe" d="M 470.5,421.5 C 470.5,429.5 470.5,437.5 470.5,445.5C 410.5,445.5 350.5,445.5 290.5,445.5C 290.5,437.5 290.5,429.5 290.5,421.5C 350.5,421.5 410.5,421.5 470.5,421.5 Z"/></g>
<g><path style="opacity:1" fill="#b59b5a" d="M 85.5,285.5 C 85.5,338.833 85.5,392.167 85.5,445.5C 131.833,445.5 178.167,445.5 224.5,445.5C 224.833,445.5 225.167,445.5 225.5,445.5C 178.67,446.499 131.67,446.832 84.5,446.5C 84.1677,392.664 84.501,338.997 85.5,285.5 Z"/></g>
<g><path style="opacity:1" fill="#bec8db" d="M 470.5,421.5 C 471.493,429.65 471.826,437.983 471.5,446.5C 410.998,446.832 350.664,446.499 290.5,445.5C 350.5,445.5 410.5,445.5 470.5,445.5C 470.5,437.5 470.5,429.5 470.5,421.5 Z"/></g>
</svg>
