<?xml version="1.0" standalone="no"?>
<!DOCTYPE svg PUBLIC "-//W3C//DTD SVG 20010904//EN"
 "http://www.w3.org/TR/2001/REC-SVG-20010904/DTD/svg10.dtd">
<svg version="1.0" xmlns="http://www.w3.org/2000/svg"
 width="1000.000000pt" height="1000.000000pt" viewBox="0 0 1000.000000 1000.000000"
 preserveAspectRatio="xMidYMid meet">

<g transform="translate(0.000000,1000.000000) scale(0.100000,-0.100000)"
fill="#000000" stroke="none">
<path d="M3331 6635 c-53 -17 -88 -48 -112 -100 -17 -36 -19 -70 -19 -332 l0
-293 1715 0 1715 0 0 294 c0 184 -4 305 -11 323 -13 35 -54 79 -94 101 -28 16
-157 17 -1590 19 -1295 1 -1567 0 -1604 -12z m1459 -360 l0 -125 -670 0 -670
0 0 125 0 125 670 0 670 0 0 -125z m740 0 l0 -125 -245 0 -245 0 0 125 0 125
245 0 245 0 0 -125z"/>
<path d="M3201 2783 c0 -212 7 -246 58 -280 33 -23 39 -23 303 -23 288 0 319
4 352 51 13 20 16 55 16 231 l0 208 -365 0 -365 0 1 -187z"/>
<path d="M5900 2770 c0 -304 -17 -290 367 -290 376 0 363 -10 363 295 l0 195
-365 0 -365 0 0 -200z"/>
</g>
</svg>
