<?xml version="1.0" standalone="no"?>
<!DOCTYPE svg PUBLIC "-//W3C//DTD SVG 20010904//EN"
 "http://www.w3.org/TR/2001/REC-SVG-20010904/DTD/svg10.dtd">
<svg version="1.0" xmlns="http://www.w3.org/2000/svg"
 width="513.000000pt" height="265.000000pt" viewBox="0 0 513.000000 265.000000"
 preserveAspectRatio="xMidYMid meet">

<g transform="translate(0.000000,265.000000) scale(0.100000,-0.100000)"
fill="#000000" stroke="none">
<path d="M4270 2525 l0 -75 95 0 95 0 0 -80 c0 -77 -1 -80 -29 -94 -16 -9 -31
-23 -35 -31 -3 -9 -6 -145 -6 -301 0 -342 -7 -324 123 -324 134 0 127 -18 127
328 0 238 -3 292 -15 308 -10 13 -14 47 -15 115 0 128 -7 155 -47 195 l-34 34
-129 0 -130 0 0 -75z"/>
<path d="M407 2068 c-3 -106 -3 -239 0 -296 8 -137 -1 -132 220 -132 160 0
175 2 193 20 19 19 20 33 20 310 l0 290 -213 0 -214 0 -6 -192z"/>
<path d="M1090 1970 c0 -277 1 -291 20 -310 19 -19 33 -20 328 -20 262 0 311
2 330 16 22 15 22 17 22 310 l0 294 -350 0 -350 0 0 -290z"/>
<path d="M2040 1970 c0 -277 1 -291 20 -310 19 -19 33 -20 328 -20 262 0 311
2 330 16 22 15 22 17 22 310 l0 294 -350 0 -350 0 0 -290z"/>
<path d="M2998 2183 c-2 -43 -2 -450 0 -904 l4 -827 186 -3 c103 -2 247 -2
320 0 l132 3 0 904 0 904 -319 0 -319 0 -4 -77z"/>
<path d="M3900 1971 c0 -345 -10 -321 137 -321 l93 0 0 305 0 305 -115 0 -115
0 0 -289z"/>
<path d="M127 1453 c-4 -3 -7 -35 -7 -70 l0 -63 1310 0 c1297 0 1310 0 1330
20 23 23 26 68 6 96 -14 19 -41 19 -1323 22 -720 1 -1312 -1 -1316 -5z"/>
<path d="M120 1020 l0 -70 1310 0 c1297 0 1310 0 1330 20 11 11 20 33 20 50 0
17 -9 39 -20 50 -20 20 -33 20 -1330 20 l-1310 0 0 -70z"/>
<path d="M1048 800 c-71 -12 -151 -53 -207 -105 l-49 -46 -372 3 -372 3 -19
-24 c-15 -18 -19 -39 -19 -92 0 -115 -21 -109 375 -109 l335 0 0 -47 c1 -180
153 -347 339 -373 263 -36 487 189 451 452 -31 220 -244 376 -462 338z"/>
<path d="M4150 799 c-119 -23 -236 -115 -288 -227 -34 -73 -42 -200 -18 -283
21 -69 72 -147 129 -193 239 -196 604 -53 647 254 5 32 6 68 3 80 -5 20 -2 20
235 20 282 0 272 -4 272 110 0 116 17 110 -319 110 l-287 0 -33 34 c-39 40
-127 82 -201 96 -60 11 -77 11 -140 -1z"/>
</g>
</svg>
