<?xml version="1.0" encoding="UTF-8"?>
<!DOCTYPE svg PUBLIC "-//W3C//DTD SVG 1.1//EN" "http://www.w3.org/Graphics/SVG/1.1/DTD/svg11.dtd">
<svg xmlns="http://www.w3.org/2000/svg" version="1.1" width="512px" height="512px" style="shape-rendering:geometricPrecision; text-rendering:geometricPrecision; image-rendering:optimizeQuality; fill-rule:evenodd; clip-rule:evenodd" xmlns:xlink="http://www.w3.org/1999/xlink">
<g><path style="opacity:0.99" fill="#000000" d="M 152.5,-0.5 C 221.167,-0.5 289.833,-0.5 358.5,-0.5C 383.152,5.98555 398.652,21.6522 405,46.5C 405.667,80.1667 405.667,113.833 405,147.5C 403.189,151.655 400.023,153.655 395.5,153.5C 390.26,152.762 387.094,149.762 386,144.5C 385.667,112.833 385.333,81.1667 385,49.5C 379.926,32.0889 368.426,22.2555 350.5,20C 285.5,19.3333 220.5,19.3333 155.5,20C 140.333,24.5 130.5,34.3333 126,49.5C 125.833,92 125.667,134.5 125.5,177C 125.349,221.531 125.849,266.031 127,310.5C 131.132,325.298 140.632,334.798 155.5,339C 220.5,339.667 285.5,339.667 350.5,339C 368.118,337.047 379.285,327.547 384,310.5C 385.288,278.867 385.955,247.201 386,215.5C 387.495,210.838 390.661,208.172 395.5,207.5C 399.689,207.182 402.855,208.848 405,212.5C 405.667,245.833 405.667,279.167 405,312.5C 398.833,337.333 383.333,352.833 358.5,359C 335.502,359.5 312.502,359.667 289.5,359.5C 289.667,408.501 289.5,457.501 289,506.5C 287.634,508.362 286.134,510.028 284.5,511.5C 281.167,511.5 277.833,511.5 274.5,511.5C 271.07,509.065 269.404,505.731 269.5,501.5C 269.5,454.167 269.5,406.833 269.5,359.5C 260.167,359.5 250.833,359.5 241.5,359.5C 241.848,366.906 241.348,374.239 240,381.5C 237.944,384.548 235.111,386.214 231.5,386.5C 227.311,386.818 224.145,385.152 222,381.5C 221.5,374.174 221.334,366.841 221.5,359.5C 198.498,359.667 175.498,359.5 152.5,359C 127.667,352.833 112.167,337.333 106,312.5C 105.333,223.833 105.333,135.167 106,46.5C 112.348,21.6522 127.848,5.98555 152.5,-0.5 Z"/></g>
<g><path style="opacity:1" fill="#fdc56b" d="M 395.5,153.5 C 395.5,159.833 395.5,166.167 395.5,172.5C 386.964,174.277 384.131,179.277 387,187.5C 389.234,190.601 392.067,192.601 395.5,193.5C 395.5,198.167 395.5,202.833 395.5,207.5C 390.661,208.172 387.495,210.838 386,215.5C 385.955,247.201 385.288,278.867 384,310.5C 379.285,327.547 368.118,337.047 350.5,339C 285.5,339.667 220.5,339.667 155.5,339C 140.632,334.798 131.132,325.298 127,310.5C 125.849,266.031 125.349,221.531 125.5,177C 125.667,134.5 125.833,92 126,49.5C 130.5,34.3333 140.333,24.5 155.5,20C 220.5,19.3333 285.5,19.3333 350.5,20C 368.426,22.2555 379.926,32.0889 385,49.5C 385.333,81.1667 385.667,112.833 386,144.5C 387.094,149.762 390.26,152.762 395.5,153.5 Z"/></g>
<g><path style="opacity:1" fill="#020101" d="M 175.5,53.5 C 227.168,53.3333 278.834,53.5 330.5,54C 342.637,55.1355 351.137,61.3022 356,72.5C 357.643,103.105 357.977,133.772 357,164.5C 356.203,169.297 353.37,172.13 348.5,173C 344.167,173.333 339.833,173.667 335.5,174C 327.935,189.281 315.602,195.281 298.5,192C 289.305,188.922 282.972,182.922 279.5,174C 263.17,173.5 246.837,173.333 230.5,173.5C 227.253,183.244 220.586,189.41 210.5,192C 194.211,195.174 182.544,189.341 175.5,174.5C 171.204,173.672 166.871,173.172 162.5,173C 159.452,172.394 156.952,170.894 155,168.5C 153.364,137.548 153.031,106.548 154,75.5C 157.685,64.6498 164.851,57.3165 175.5,53.5 Z"/></g>
<g><path style="opacity:1" fill="#fefefe" d="M 216.5,73.5 C 216.5,83.1667 216.5,92.8333 216.5,102.5C 202.167,102.5 187.833,102.5 173.5,102.5C 173.334,94.4931 173.5,86.4931 174,78.5C 175.5,77 177,75.5 178.5,74C 191.162,73.5001 203.829,73.3334 216.5,73.5 Z"/></g>
<g><path style="opacity:1" fill="#fdfdfd" d="M 237.5,73.5 C 249.5,73.5 261.5,73.5 273.5,73.5C 273.5,83.5 273.5,93.5 273.5,103.5C 261.5,103.5 249.5,103.5 237.5,103.5C 237.5,93.5 237.5,83.5 237.5,73.5 Z"/></g>
<g><path style="opacity:1" fill="#fefefe" d="M 294.5,73.5 C 307.171,73.3334 319.838,73.5001 332.5,74C 334,75.5 335.5,77 337,78.5C 337.5,86.4931 337.666,94.4931 337.5,102.5C 323.167,102.5 308.833,102.5 294.5,102.5C 294.5,92.8333 294.5,83.1667 294.5,73.5 Z"/></g>
<g><path style="opacity:1" fill="#d5d5d5" d="M 216.5,73.5 C 217.494,83.3194 217.827,93.3194 217.5,103.5C 202.657,103.829 187.99,103.496 173.5,102.5C 187.833,102.5 202.167,102.5 216.5,102.5C 216.5,92.8333 216.5,83.1667 216.5,73.5 Z"/></g>
<g><path style="opacity:1" fill="#d5d5d5" d="M 294.5,73.5 C 294.5,83.1667 294.5,92.8333 294.5,102.5C 308.833,102.5 323.167,102.5 337.5,102.5C 323.01,103.496 308.343,103.829 293.5,103.5C 293.173,93.3194 293.506,83.3194 294.5,73.5 Z"/></g>
<g><path style="opacity:1" fill="#fcfcfc" d="M 173.5,123.5 C 228.167,123.5 282.833,123.5 337.5,123.5C 337.832,133.522 337.499,143.522 336.5,153.5C 325.583,133.414 309.917,128.58 289.5,139C 285.069,142.698 281.736,147.198 279.5,152.5C 263.51,153.666 247.51,153.833 231.5,153C 224.939,138.381 213.606,132.048 197.5,134C 186.678,136.816 178.844,143.316 174,153.5C 173.5,143.506 173.334,133.506 173.5,123.5 Z"/></g>
<g><path style="opacity:1" fill="#f6f6f6" d="M 199.5,153.5 C 207.397,152.44 212.064,155.773 213.5,163.5C 211.365,171.564 206.365,174.398 198.5,172C 193.847,169.058 192.347,164.891 194,159.5C 195.36,156.977 197.193,154.977 199.5,153.5 Z"/></g>
<g><path style="opacity:1" fill="#f5f5f5" d="M 303.5,153.5 C 313.458,152.369 317.958,156.702 317,166.5C 310.625,175.712 304.292,175.712 298,166.5C 296.831,160.853 298.665,156.519 303.5,153.5 Z"/></g>
<g><path style="opacity:0.944" fill="#040301" d="M 395.5,172.5 C 402.063,172.897 405.396,176.397 405.5,183C 405.1,189.235 401.767,192.735 395.5,193.5C 392.067,192.601 389.234,190.601 387,187.5C 384.131,179.277 386.964,174.277 395.5,172.5 Z"/></g>
<g><path style="opacity:1" fill="#020100" d="M 159.5,219.5 C 171.886,219.106 184.22,219.606 196.5,221C 211.078,226.985 217.245,237.818 215,253.5C 213.977,257.879 212.144,261.879 209.5,265.5C 216.92,276.476 217.42,287.809 211,299.5C 206.372,305.227 200.539,309.06 193.5,311C 182.5,311.667 171.5,311.667 160.5,311C 157.667,309.5 155.5,307.333 154,304.5C 153.333,278.833 153.333,253.167 154,227.5C 155.243,224.424 157.077,221.757 159.5,219.5 Z"/></g>
<g><path style="opacity:1" fill="#030201" d="M 234.5,219.5 C 239.545,219.338 243.378,221.338 246,225.5C 246.333,245.167 246.667,264.833 247,284.5C 252.833,293.473 259.167,293.806 266,285.5C 266.035,265.102 266.702,244.769 268,224.5C 274.395,217.766 280.395,218.099 286,225.5C 286.944,247.209 286.61,268.876 285,290.5C 277.078,308.709 263.578,314.876 244.5,309C 235.793,304.282 229.96,297.115 227,287.5C 226.333,267.5 226.333,247.5 227,227.5C 228.353,223.65 230.853,220.983 234.5,219.5 Z"/></g>
<g><path style="opacity:1" fill="#040201" d="M 317.5,219.5 C 324.508,219.334 331.508,219.5 338.5,220C 345.526,221.878 348.026,226.378 346,233.5C 344.749,236.381 342.583,238.214 339.5,239C 332.726,239.078 326.059,239.745 319.5,241C 316.651,243.559 315.817,246.726 317,250.5C 317.833,252.667 319.333,254.167 321.5,255C 333.915,253.885 344.415,257.719 353,266.5C 361.72,281.14 359.887,294.306 347.5,306C 344.618,307.608 341.618,308.941 338.5,310C 328.023,312.326 317.69,311.992 307.5,309C 302.797,302.281 303.797,296.615 310.5,292C 318.167,291.667 325.833,291.333 333.5,291C 338.069,288.459 339.569,284.625 338,279.5C 337.167,278.667 336.333,277.833 335.5,277C 322.355,277.954 311.188,273.787 302,264.5C 291.331,244.005 296.498,229.005 317.5,219.5 Z"/></g>
<g><path style="opacity:1" fill="#fbc36a" d="M 173.5,239.5 C 179.925,239.13 186.258,239.63 192.5,241C 195.886,244.373 196.386,248.206 194,252.5C 193.097,253.701 191.931,254.535 190.5,255C 184.843,255.499 179.176,255.666 173.5,255.5C 173.5,250.167 173.5,244.833 173.5,239.5 Z"/></g>
<g><path style="opacity:1" fill="#fbc36a" d="M 173.5,275.5 C 179.925,275.13 186.258,275.63 192.5,277C 195.886,280.373 196.386,284.206 194,288.5C 193.097,289.701 191.931,290.535 190.5,291C 184.843,291.499 179.176,291.666 173.5,291.5C 173.5,286.167 173.5,280.833 173.5,275.5 Z"/></g>
<g><path style="opacity:1" fill="#4cb9f5" d="M 269.5,501.5 C 260.167,501.5 250.833,501.5 241.5,501.5C 241.667,485.163 241.5,468.83 241,452.5C 239.493,447.824 236.327,445.158 231.5,444.5C 231.5,438.167 231.5,431.833 231.5,425.5C 240.036,423.723 242.869,418.723 240,410.5C 237.971,407.404 235.138,405.738 231.5,405.5C 231.5,399.167 231.5,392.833 231.5,386.5C 235.111,386.214 237.944,384.548 240,381.5C 241.348,374.239 241.848,366.906 241.5,359.5C 250.833,359.5 260.167,359.5 269.5,359.5C 269.5,406.833 269.5,454.167 269.5,501.5 Z"/></g>
<g><path style="opacity:0.937" fill="#010304" d="M 231.5,405.5 C 235.138,405.738 237.971,407.404 240,410.5C 242.869,418.723 240.036,423.723 231.5,425.5C 224.84,425.507 221.507,422.174 221.5,415.5C 221.507,408.826 224.84,405.493 231.5,405.5 Z"/></g>
<g><path style="opacity:0.978" fill="#000000" d="M 231.5,444.5 C 236.327,445.158 239.493,447.824 241,452.5C 241.5,468.83 241.667,485.163 241.5,501.5C 241.596,505.731 239.93,509.065 236.5,511.5C 233.167,511.5 229.833,511.5 226.5,511.5C 224.866,510.028 223.366,508.362 222,506.5C 221.333,487.5 221.333,468.5 222,449.5C 224.145,445.848 227.311,444.182 231.5,444.5 Z"/></g>
</svg>
