<?xml version="1.0" encoding="UTF-8"?>
<!DOCTYPE svg PUBLIC "-//W3C//DTD SVG 1.1//EN" "http://www.w3.org/Graphics/SVG/1.1/DTD/svg11.dtd">
<svg xmlns="http://www.w3.org/2000/svg" version="1.1" width="512px" height="512px" style="shape-rendering:geometricPrecision; text-rendering:geometricPrecision; image-rendering:optimizeQuality; fill-rule:evenodd; clip-rule:evenodd" xmlns:xlink="http://www.w3.org/1999/xlink">
<g><path style="opacity:0.962" fill="#020000" d="M 237.5,15.5 C 313.379,11.8478 370.879,42.1812 410,106.5C 427.901,140.337 434.901,176.337 431,214.5C 425.315,257.557 411.648,297.89 390,335.5C 355.414,394.734 312.58,447.567 261.5,494C 257.5,496 253.5,496 249.5,494C 194.016,443.78 148.516,385.947 113,320.5C 95.6505,287.137 84.6505,251.803 80,214.5C 74.3551,136.616 104.522,77.4498 170.5,37C 191.631,25.6769 213.965,18.5102 237.5,15.5 Z"/></g>
<g><path style="opacity:1" fill="#fc9600" d="M 240.5,33.5 C 308.905,30.86 360.738,58.5267 396,116.5C 416.722,156.274 421.388,197.94 410,241.5C 398.725,283.71 380.725,322.71 356,358.5C 327.157,401.532 293.657,440.866 255.5,476.5C 206.899,431.096 166.065,379.763 133,322.5C 115.018,289.887 103.018,255.22 97,218.5C 89.7456,156.223 110.246,105.39 158.5,66C 183.028,47.9928 210.361,37.1595 240.5,33.5 Z"/></g>
<g><path style="opacity:1" fill="#040301" d="M 243.5,47.5 C 308.328,45.9801 355.828,73.6468 386,130.5C 405.047,174.43 403.714,217.763 382,260.5C 350.321,313.263 303.488,338.096 241.5,335C 188.154,327.764 149.321,300.264 125,252.5C 101.57,196.003 108.903,144.003 147,96.5C 173.052,68.0577 205.218,51.7244 243.5,47.5 Z"/></g>
<g><path style="opacity:1" fill="#ececec" d="M 240.5,63.5 C 294.729,60.5306 336.563,81.5306 366,126.5C 391.645,175.477 388.979,222.81 358,268.5C 323.027,310.715 278.527,326.549 224.5,316C 169.625,299.117 137.458,262.284 128,205.5C 124.828,151.675 145.662,110.175 190.5,81C 206.208,72.0436 222.875,66.2103 240.5,63.5 Z"/></g>
<g><path style="opacity:1" fill="#010000" d="M 220.5,87.5 C 244.565,87.0296 268.565,87.5296 292.5,89C 293.701,89.9025 294.535,91.0692 295,92.5C 295.5,101.494 295.666,110.494 295.5,119.5C 317.885,118.551 328.551,129.218 327.5,151.5C 332.833,151.5 338.167,151.5 343.5,151.5C 343.5,156.833 343.5,162.167 343.5,167.5C 338.167,167.5 332.833,167.5 327.5,167.5C 327.667,192.169 327.5,216.836 327,241.5C 326.291,245.041 324.124,247.041 320.5,247.5C 319.923,257.222 319.089,266.888 318,276.5C 316.829,277.893 315.329,278.727 313.5,279C 300.405,279.961 287.405,279.628 274.5,278C 273.107,276.829 272.273,275.329 272,273.5C 271.5,264.84 271.334,256.173 271.5,247.5C 260.833,247.5 250.167,247.5 239.5,247.5C 239.92,257.247 239.42,266.914 238,276.5C 236.829,277.893 235.329,278.727 233.5,279C 221.167,279.667 208.833,279.667 196.5,279C 195.069,278.535 193.903,277.701 193,276.5C 191.58,266.914 191.08,257.247 191.5,247.5C 187.363,247.518 184.863,245.518 184,241.5C 183.5,216.836 183.333,192.169 183.5,167.5C 178.167,167.5 172.833,167.5 167.5,167.5C 167.5,162.167 167.5,156.833 167.5,151.5C 172.833,151.5 178.167,151.5 183.5,151.5C 181.179,137.643 186.179,127.477 198.5,121C 204.072,119.649 209.738,119.149 215.5,119.5C 215.334,110.494 215.5,101.494 216,92.5C 217.025,90.313 218.525,88.6464 220.5,87.5 Z"/></g>
<g><path style="opacity:1" fill="#fe9800" d="M 231.5,103.5 C 247.5,103.5 263.5,103.5 279.5,103.5C 279.5,108.833 279.5,114.167 279.5,119.5C 263.5,119.5 247.5,119.5 231.5,119.5C 231.5,114.167 231.5,108.833 231.5,103.5 Z"/></g>
<g><path style="opacity:1" fill="#ededed" d="M 204.5,135.5 C 239.253,135.014 273.92,135.514 308.5,137C 309.701,137.903 310.535,139.069 311,140.5C 311.5,157.497 311.667,174.497 311.5,191.5C 274.167,191.5 236.833,191.5 199.5,191.5C 199.333,174.497 199.5,157.497 200,140.5C 201.025,138.313 202.525,136.646 204.5,135.5 Z"/></g>
<g><path style="opacity:1" fill="#fd9600" d="M 199.5,207.5 C 207.507,207.334 215.507,207.5 223.5,208C 215.848,211.803 213.681,217.636 217,225.5C 218.873,227.709 221.04,229.542 223.5,231C 215.507,231.5 207.507,231.666 199.5,231.5C 199.5,223.5 199.5,215.5 199.5,207.5 Z"/></g>
<g><path style="opacity:1" fill="#fc9600" d="M 230.5,208.5 C 246.661,207.338 262.995,207.172 279.5,208C 271.848,211.803 269.681,217.636 273,225.5C 274.873,227.709 277.04,229.542 279.5,231C 263.167,231.667 246.833,231.667 230.5,231C 238.245,227.437 240.745,221.603 238,213.5C 236.114,210.758 233.614,209.091 230.5,208.5 Z"/></g>
<g><path style="opacity:1" fill="#fc9600" d="M 286.5,208.5 C 294.65,207.507 302.983,207.174 311.5,207.5C 311.5,215.5 311.5,223.5 311.5,231.5C 303.16,231.666 294.827,231.5 286.5,231C 294.245,227.437 296.745,221.603 294,213.5C 292.114,210.758 289.614,209.091 286.5,208.5 Z"/></g>
<g><path style="opacity:1" fill="#fe9800" d="M 207.5,247.5 C 212.833,247.5 218.167,247.5 223.5,247.5C 223.5,252.833 223.5,258.167 223.5,263.5C 218.167,263.5 212.833,263.5 207.5,263.5C 207.5,258.167 207.5,252.833 207.5,247.5 Z"/></g>
<g><path style="opacity:1" fill="#fe9800" d="M 287.5,247.5 C 292.833,247.5 298.167,247.5 303.5,247.5C 303.5,252.833 303.5,258.167 303.5,263.5C 298.167,263.5 292.833,263.5 287.5,263.5C 287.5,258.167 287.5,252.833 287.5,247.5 Z"/></g>
</svg>
