<?xml version="1.0" encoding="UTF-8"?>
<!DOCTYPE svg PUBLIC "-//W3C//DTD SVG 1.1//EN" "http://www.w3.org/Graphics/SVG/1.1/DTD/svg11.dtd">
<svg xmlns="http://www.w3.org/2000/svg" version="1.1" width="32px" height="32px" style="shape-rendering:geometricPrecision; text-rendering:geometricPrecision; image-rendering:optimizeQuality; fill-rule:evenodd; clip-rule:evenodd" xmlns:xlink="http://www.w3.org/1999/xlink">
<g><path style="opacity:0.694" fill="#ff9700" d="M 7.5,-0.5 C 12.8333,-0.5 18.1667,-0.5 23.5,-0.5C 23.5,0.166667 23.5,0.833333 23.5,1.5C 18.1667,1.5 12.8333,1.5 7.5,1.5C 7.5,0.833333 7.5,0.166667 7.5,-0.5 Z"/></g>
<g><path style="opacity:1" fill="#fabc07" d="M 7.5,1.5 C 12.8333,1.5 18.1667,1.5 23.5,1.5C 25.4672,1.26057 27.3005,1.59391 29,2.5C 29.4994,8.15688 29.6661,13.8236 29.5,19.5C 20.1667,19.5 10.8333,19.5 1.5,19.5C 1.33391,13.8236 1.50058,8.15688 2,2.5C 3.69946,1.59391 5.5328,1.26057 7.5,1.5 Z"/></g>
<g><path style="opacity:1" fill="#82d2f0" d="M 4.5,3.5 C 4.5,5.16667 4.5,6.83333 4.5,8.5C 11.8333,8.5 19.1667,8.5 26.5,8.5C 26.5,6.83333 26.5,5.16667 26.5,3.5C 27.647,7.64631 27.8136,11.9796 27,16.5C 19.3333,17.8333 11.6667,17.8333 4,16.5C 3.18636,11.9796 3.35303,7.64631 4.5,3.5 Z"/></g>
<g><path style="opacity:1" fill="#2a3c3c" d="M 4.5,3.5 C 11.8333,3.5 19.1667,3.5 26.5,3.5C 26.5,5.16667 26.5,6.83333 26.5,8.5C 19.1667,8.5 11.8333,8.5 4.5,8.5C 4.5,6.83333 4.5,5.16667 4.5,3.5 Z"/></g>
<g><path style="opacity:1" fill="#59bf20" d="M 16.5,4.5 C 17.675,4.28099 18.675,4.61432 19.5,5.5C 17.9483,6.79789 16.9483,6.46455 16.5,4.5 Z"/></g>
<g><path style="opacity:1" fill="#59be20" d="M 5.5,4.5 C 8.57186,4.18259 11.5719,4.51592 14.5,5.5C 13,5.83333 11.5,6.16667 10,6.5C 8.01448,6.43135 6.51448,5.76468 5.5,4.5 Z"/></g>
<g><path style="opacity:0.93" fill="#fd9807" d="M 1.5,19.5 C 10.8333,19.5 20.1667,19.5 29.5,19.5C 30.0545,23.0122 29.3878,26.0122 27.5,28.5C 25.5,28.5 23.5,28.5 21.5,28.5C 17.5,28.5 13.5,28.5 9.5,28.5C 7.5,28.5 5.5,28.5 3.5,28.5C 1.61216,26.0122 0.945498,23.0122 1.5,19.5 Z"/></g>
<g><path style="opacity:1" fill="#fff0cf" d="M 5.5,21.5 C 7.91176,21.6941 8.91176,23.0274 8.5,25.5C 5.04643,25.7332 4.04643,24.3999 5.5,21.5 Z"/></g>
<g><path style="opacity:1" fill="#ffefce" d="M 23.5,21.5 C 24.9953,21.4148 25.9953,22.0815 26.5,23.5C 25.6798,25.1112 24.3464,25.7778 22.5,25.5C 22.4326,24.0413 22.7659,22.7079 23.5,21.5 Z"/></g>
<g><path style="opacity:0.946" fill="#445963" d="M 3.5,28.5 C 5.5,28.5 7.5,28.5 9.5,28.5C 9.5,29.5 9.5,30.5 9.5,31.5C 7.5,31.5 5.5,31.5 3.5,31.5C 3.5,30.5 3.5,29.5 3.5,28.5 Z"/></g>
<g><path style="opacity:0.946" fill="#445963" d="M 21.5,28.5 C 23.5,28.5 25.5,28.5 27.5,28.5C 27.5,29.5 27.5,30.5 27.5,31.5C 25.5,31.5 23.5,31.5 21.5,31.5C 21.5,30.5 21.5,29.5 21.5,28.5 Z"/></g>
</svg>
