<?xml version="1.0" encoding="utf-8"?>
<!-- Generator: Adobe Illustrator 27.5.0, SVG Export Plug-In . SVG Version: 6.00 Build 0)  -->
<svg version="1.1" id="Capa_1" xmlns="http://www.w3.org/2000/svg" xmlns:xlink="http://www.w3.org/1999/xlink" x="0px" y="0px"
	 viewBox="0 0 425.197 425.197" style="enable-background:new 0 0 425.197 425.197;" xml:space="preserve">
<g>
	<path style="fill:#F99F41;" d="M102.312,111.782l0.147-0.814h286.703c-5.716-10.96-17.165-18.453-30.382-18.453H122.661
		c0,0-17.738-0.429-20.044,17.572L102.312,111.782L102.312,111.782z"/>
	<path style="fill:#F99F41;" d="M377.473,214.36v-9.727h15.575v-17.158H140.881v72.976c0.518,0.322,1.035,0.646,1.54,0.987
		c4.549,3.072,8.552,6.89,11.835,11.278c0.446,0.596,0.877,1.204,1.295,1.821c0.415,0.611,0.815,1.234,1.202,1.865
		c0.003,0.005,0.006,0.01,0.009,0.014h137.276c6.537-10.639,17.04-18.568,29.449-21.76c-0.004,0-0.008-0.001-0.012-0.001
		c0.029-0.007,0.059-0.012,0.087-0.02c0.798-0.204,1.606-0.382,2.419-0.546c0.125-0.025,0.248-0.058,0.374-0.083
		c0.951-0.184,1.911-0.344,2.881-0.472c0.166-0.022,0.332-0.043,0.498-0.063c0.783-0.095,1.57-0.171,2.364-0.229
		c0.226-0.017,0.451-0.038,0.678-0.052c0.968-0.057,1.941-0.095,2.923-0.095c1.686,0,3.353,0.085,4.996,0.252
		c3.285,0.334,6.474,0.992,9.534,1.944c1.53,0.476,3.028,1.025,4.489,1.643c5.115,2.163,9.785,5.171,13.834,8.851
		c1.157,1.051,2.263,2.157,3.315,3.314c1.052,1.157,2.048,2.364,2.986,3.618c0.891,1.191,1.725,2.428,2.507,3.7h15.687v-31.248
		H151.004v-11.445h242.044v-4.657h-15.575v-3.262H151.004V214.36H377.473z"/>
	<path style="fill:#F99F41;" d="M87.087,187.475v-0.488H75.445c0,0-12.133-2.204-23.256,4.461c1.182,0.997,2.232,2.143,3.055,3.472
		c1.592,2.572,2.204,5.643,1.745,8.632c-0.972,6.327-6.044,11.495-12.033,13.402c-3.034,0.966-6.218,1.09-9.312,0.538
		c-0.082,0.398-0.171,0.786-0.247,1.195l-0.647,6.268h31.196v37.457H30.885l2.374-23l-3.83,37.11
		c0.461-0.063,0.927-0.108,1.405-0.108h42.608c6.537-10.639,17.04-18.568,29.448-21.76c-0.004,0-0.008-0.001-0.012-0.001
		c0.028-0.007,0.058-0.012,0.086-0.019c0.8-0.204,1.609-0.383,2.424-0.547c0.124-0.025,0.246-0.058,0.37-0.082
		c0.951-0.184,1.911-0.344,2.881-0.472c0.166-0.022,0.331-0.043,0.498-0.063c0.783-0.095,1.571-0.171,2.364-0.229
		c0.226-0.017,0.451-0.038,0.679-0.052c0.968-0.057,1.94-0.094,2.923-0.094c4.216,0,8.308,0.534,12.211,1.538
		c1.561,0.402,3.092,0.878,4.589,1.426c0.571,0.209,1.134,0.435,1.693,0.667c0.398,0.163,0.793,0.332,1.186,0.505
		c0.001,0,0.002,0.001,0.003,0.001v-69.759H87.087z"/>
	<path style="fill:#FFD544;" d="M44.956,216.955c5.989-1.907,11.061-7.075,12.033-13.402c0.459-2.99-0.153-6.06-1.745-8.632
		c-0.823-1.33-1.873-2.475-3.055-3.472c-0.001-0.001-0.003-0.002-0.004-0.003c-0.037,0.022-0.074,0.048-0.111,0.071
		c-0.389,0.236-0.777,0.48-1.163,0.738l-0.09,0.061c-0.836,0.563-1.664,1.18-2.477,1.855l-0.1,0.084
		c-0.811,0.68-1.607,1.418-2.382,2.22l-0.085,0.089c-0.78,0.813-1.538,1.691-2.27,2.639l-0.058,0.075
		c-0.739,0.963-1.45,1.997-2.127,3.109l-0.028,0.045c-0.309,0.508-0.61,1.034-0.904,1.575c-0.136,0.25-0.265,0.514-0.397,0.771
		c-0.153,0.297-0.309,0.589-0.457,0.896c-0.156,0.322-0.305,0.659-0.455,0.992c-0.116,0.257-0.236,0.509-0.349,0.773
		c-0.159,0.37-0.311,0.755-0.463,1.139c-0.096,0.242-0.194,0.479-0.287,0.726c-0.156,0.412-0.304,0.838-0.452,1.265
		c-0.081,0.234-0.163,0.465-0.242,0.703c-0.148,0.45-0.289,0.911-0.428,1.377c-0.07,0.233-0.14,0.465-0.208,0.702
		c-0.137,0.482-0.267,0.976-0.394,1.476c-0.061,0.238-0.121,0.476-0.179,0.718c-0.123,0.511-0.24,1.033-0.353,1.562
		c-0.028,0.131-0.06,0.255-0.088,0.387c0.002,0,0.005,0.001,0.007,0.001C38.738,218.046,41.922,217.921,44.956,216.955z"/>
	<polygon style="fill:#3C3067;" points="65.946,262.414 65.946,224.957 34.75,224.957 34.75,224.957 33.258,239.414 30.885,262.414 
			"/>
	<path style="fill:#F6863E;" d="M102.458,110.968l-1.74,9.647c0.107-0.591,10.466-0.419,17.797-0.222
		c4.197,0.112,7.728,3.158,8.462,7.292c1.907,10.738,5.19,31.552,5.097,47.091c-0.028,4.584-3.777,8.272-8.361,8.272H89.46
		l-0.71,3.94h-1.662v0.488h47.697v-76.507H102.458z"/>
	<path style="fill:#F6863E;" d="M392.988,124.812c-0.011-0.194-0.03-0.385-0.044-0.579c-0.035-0.467-0.076-0.933-0.129-1.395
		c-0.023-0.204-0.05-0.408-0.077-0.611c-0.063-0.469-0.134-0.935-0.216-1.398c-0.03-0.169-0.058-0.338-0.09-0.506
		c-0.109-0.567-0.23-1.129-0.366-1.686l-0.038-0.162c-0.33-1.319-0.742-2.605-1.22-3.859c-0.232-0.61-0.476-1.215-0.741-1.809
		l-0.035-0.077c-0.269-0.597-0.554-1.185-0.855-1.763h-0.016H140.881v76.507h252.167v-60.691
		C393.048,126.121,393.025,125.464,392.988,124.812z"/>
	<path style="fill:#3C3067;" d="M394.364,276.417h-1.316h-15.687c0.452,0.736,0.889,1.482,1.303,2.242
		c1.128,2.076,2.11,4.243,2.932,6.488c0.311,0.848,0.589,1.71,0.853,2.579c0.066,0.218,0.13,0.437,0.193,0.656
		c0.233,0.808,0.449,1.623,0.641,2.447c0.017,0.071,0.036,0.14,0.052,0.211c0.21,0.922,0.389,1.856,0.546,2.797
		c0.026,0.157,0.049,0.315,0.074,0.472c0.136,0.865,0.251,1.737,0.341,2.617c0.007,0.065,0.019,0.129,0.025,0.194h10.042
		c5.693,0,10.352-4.658,10.352-10.352C404.716,281.075,400.058,276.417,394.364,276.417z"/>
	<path style="fill:#3C3067;" d="M30.833,276.417c-0.477,0-0.944,0.044-1.405,0.108c-5.034,0.692-8.947,5.028-8.947,10.244
		c0,5.693,4.659,10.352,10.352,10.352H66.48c0.739-7.536,3.191-14.567,6.961-20.703H30.833z"/>
	<path style="fill:#3C3067;" d="M156.763,276.417l0.126,0.197c0.408,0.671,0.801,1.353,1.177,2.046
		c0.43,0.791,0.833,1.599,1.219,2.416c0.126,0.265,0.241,0.534,0.362,0.802c0.253,0.561,0.499,1.127,0.731,1.699
		c0.13,0.319,0.255,0.639,0.378,0.961c0.209,0.547,0.406,1.099,0.595,1.655c0.111,0.325,0.224,0.648,0.328,0.976
		c0.205,0.647,0.391,1.301,0.57,1.959c0.064,0.235,0.138,0.467,0.198,0.703c0.217,0.853,0.408,1.716,0.58,2.586
		c0.073,0.367,0.13,0.739,0.195,1.108c0.095,0.546,0.185,1.092,0.262,1.644c0.057,0.41,0.106,0.822,0.153,1.236
		c0.027,0.239,0.065,0.474,0.088,0.715h123.355c0.739-7.536,3.191-14.567,6.961-20.703H156.763z"/>
	<path style="fill:#FDB743;" d="M358.407,273.252c-4.784-5.023-10.531-9.113-16.618-12.407c-3.321-1.797-6.789-3.361-10.389-4.512
		c-2.563-0.819-5.223-1.437-7.912-1.676c-12.408,3.192-22.911,11.12-29.449,21.76c-3.77,6.136-6.222,13.168-6.961,20.703
		c-0.156,1.586-0.239,3.194-0.239,4.822c0,0.125,0.009,0.248,0.01,0.373h13.472c-0.085-0.969-0.136-1.948-0.136-2.939
		c0-18.395,14.912-33.306,33.306-33.306c18.395,0,33.307,14.912,33.307,33.306c0,0.991-0.052,1.97-0.137,2.939h4.998
		c-0.784-4.909-1.909-9.777-3.773-14.395C365.685,282.464,362.463,277.511,358.407,273.252z"/>
	<path style="fill:#FFD544;" d="M383.957,294.309c-0.025-0.157-0.047-0.315-0.074-0.472c-0.157-0.941-0.336-1.875-0.546-2.797
		c-0.016-0.071-0.036-0.14-0.052-0.211c-0.192-0.824-0.408-1.639-0.641-2.447c-0.063-0.219-0.127-0.438-0.193-0.656
		c-0.264-0.869-0.543-1.731-0.853-2.579c-0.822-2.244-1.804-4.412-2.932-6.488c-0.414-0.761-0.851-1.507-1.303-2.242
		c-0.781-1.272-1.616-2.508-2.507-3.7c-0.938-1.254-1.935-2.461-2.986-3.618c-1.051-1.157-2.158-2.262-3.315-3.314
		c-4.049-3.679-8.719-6.688-13.834-8.851c-1.461-0.618-2.959-1.167-4.489-1.643c-3.06-0.951-6.249-1.61-9.534-1.944
		c-1.642-0.167-3.309-0.252-4.996-0.252c-0.982,0-1.955,0.038-2.923,0.095c-0.227,0.014-0.452,0.035-0.678,0.052
		c-0.794,0.058-1.582,0.134-2.364,0.229c-0.166,0.021-0.332,0.041-0.498,0.063c-0.969,0.13-1.93,0.288-2.881,0.472
		c-0.126,0.024-0.249,0.057-0.374,0.083c-0.813,0.164-1.621,0.342-2.419,0.546c-0.029,0.007-0.058,0.012-0.087,0.02
		c0.004,0,0.008,0.001,0.012,0.001c2.689,0.239,5.35,0.857,7.912,1.676c3.6,1.151,7.067,2.715,10.389,4.512
		c6.087,3.294,11.833,7.383,16.618,12.407c4.056,4.259,7.278,9.212,9.479,14.668c1.863,4.618,2.989,9.486,3.773,14.395h12.893
		c0.001-0.125,0.01-0.248,0.01-0.373c0-0.794-0.022-1.582-0.06-2.366c-0.006-0.127-0.018-0.251-0.025-0.378
		c-0.037-0.663-0.084-1.322-0.147-1.978c-0.009-0.098-0.022-0.195-0.032-0.294C384.207,296.046,384.092,295.174,383.957,294.309z"/>
	<path style="fill:#3C3067;" d="M333.491,266.07c-18.395,0-33.306,14.912-33.306,33.306c0,0.991,0.051,1.97,0.136,2.939
		c1.489,17.017,15.766,30.368,33.17,30.368c17.404,0,31.681-13.351,33.17-30.368c0.085-0.969,0.137-1.948,0.137-2.939
		C366.798,280.981,351.886,266.07,333.491,266.07z"/>
	
		<ellipse transform="matrix(0.9871 -0.1602 0.1602 0.9871 -43.6486 57.2852)" style="fill:#5A5384;" cx="333.491" cy="299.376" rx="17.876" ry="17.876"/>
	
		<ellipse transform="matrix(0.9871 -0.1602 0.1602 0.9871 -43.6484 57.2849)" style="fill:#6D6991;" cx="333.491" cy="299.376" rx="9.008" ry="9.008"/>
	<path style="fill:#3C3067;" d="M158.535,180.641c25.742,5.414,39.748,0,39.748,0c2.506-0.839,4.162-2.163,4.687-4.687
		c5.319-25.535,0-47.175,0-47.175c-1.544-3.022-1.544-3.284-4.687-4.687c0,0-16.647-7.821-39.748,0
		c-1.791,0.607-3.566,2.109-4.687,4.687c0,0-3.76,26.245,0,47.175C154.304,178.491,155.422,179.277,158.535,180.641z"/>
	<path style="fill:#3C3067;" d="M215.792,180.641c25.742,5.414,39.748,0,39.748,0c2.506-0.839,4.162-2.163,4.687-4.687
		c5.319-25.535,0-47.175,0-47.175c-1.544-3.022-1.544-3.284-4.687-4.687c0,0-16.648-7.821-39.748,0
		c-1.792,0.607-3.566,2.109-4.687,4.687c0,0-3.76,26.245,0,47.175C211.561,178.491,212.679,179.277,215.792,180.641z"/>
	<path style="fill:#3C3067;" d="M273.677,180.641c25.742,5.414,39.748,0,39.748,0c2.506-0.839,4.162-2.163,4.687-4.687
		c5.319-25.535,0-47.175,0-47.175c-1.544-3.022-1.544-3.284-4.687-4.687c0,0-16.647-7.821-39.748,0
		c-1.791,0.607-3.566,2.109-4.687,4.687c0,0-3.76,26.245,0,47.175C269.446,178.491,270.564,179.277,273.677,180.641z"/>
	<path style="fill:#3C3067;" d="M330.673,180.438c25.742,5.414,39.748,0,39.748,0c2.505-0.839,4.161-2.164,4.687-4.688
		c5.319-25.535,0-47.175,0-47.175c-1.544-3.022-1.544-3.284-4.687-4.688c0,0-16.648-7.821-39.748,0
		c-1.791,0.607-3.566,2.109-4.687,4.688c0,0-3.76,26.245,0,47.175C326.442,178.288,327.56,179.074,330.673,180.438z"/>
	<path style="fill:#3C3067;" d="M132.074,174.775c0.094-15.538-3.19-36.352-5.097-47.091c-0.734-4.134-4.265-7.18-8.462-7.292
		c-7.331-0.196-17.69-0.368-17.797,0.222v0l-9.098,50.45l-2.161,11.982h34.253C128.297,183.047,132.047,179.359,132.074,174.775z"/>
	<rect x="151.004" y="233.724" style="fill:#3C3067;" width="242.044" height="11.445"/>
	<rect x="151.004" y="214.36" style="fill:#3C3067;" width="226.469" height="11.445"/>
	<path style="fill:#D06B33;" d="M140.881,110.968h-6.097v76.507v69.759c0.503,0.222,1.007,0.441,1.501,0.679
		c1.583,0.763,3.113,1.616,4.596,2.538v-72.976V110.968z"/>
	<path style="fill:#FDB743;" d="M137.808,273.252c-4.784-5.023-10.531-9.113-16.618-12.407c-3.321-1.797-6.788-3.361-10.388-4.512
		c-2.563-0.819-5.223-1.437-7.913-1.676c-12.408,3.192-22.911,11.12-29.448,21.76c-3.77,6.136-6.222,13.168-6.961,20.703
		c-0.156,1.586-0.239,3.194-0.239,4.822c0,0.125,0.009,0.248,0.009,0.373h13.472c-0.085-0.969-0.136-1.948-0.136-2.939
		c0-18.395,14.912-33.306,33.307-33.306c18.395,0,33.307,14.912,33.307,33.306c0,0.991-0.052,1.97-0.137,2.939h4.998
		c-0.784-4.909-1.909-9.777-3.773-14.395C145.087,282.464,141.865,277.511,137.808,273.252z"/>
	<path style="fill:#FFD544;" d="M163.483,295.169c-0.077-0.552-0.167-1.099-0.262-1.644c-0.064-0.37-0.122-0.742-0.195-1.108
		c-0.172-0.87-0.362-1.733-0.58-2.586c-0.061-0.237-0.134-0.468-0.198-0.703c-0.178-0.658-0.365-1.312-0.57-1.959
		c-0.104-0.328-0.217-0.651-0.328-0.976c-0.189-0.556-0.386-1.109-0.595-1.655c-0.123-0.322-0.248-0.643-0.378-0.961
		c-0.232-0.572-0.478-1.138-0.731-1.699c-0.121-0.268-0.236-0.537-0.362-0.802c-0.387-0.817-0.789-1.625-1.219-2.416
		c-0.376-0.692-0.769-1.374-1.177-2.046c-0.043-0.072-0.091-0.14-0.135-0.211c-0.388-0.631-0.787-1.253-1.202-1.865
		c-0.419-0.617-0.849-1.225-1.295-1.821c-3.283-4.388-7.287-8.206-11.835-11.278c-0.505-0.341-1.022-0.665-1.54-0.987
		c-1.482-0.922-3.012-1.776-4.596-2.538c-0.495-0.238-1-0.458-1.504-0.68c-0.393-0.173-0.788-0.342-1.186-0.505
		c-0.561-0.229-1.122-0.458-1.693-0.667c-1.497-0.548-3.028-1.025-4.589-1.426c-3.903-1.004-7.995-1.538-12.211-1.538
		c-0.982,0-1.955,0.037-2.923,0.094c-0.227,0.014-0.452,0.035-0.679,0.052c-0.793,0.058-1.581,0.134-2.364,0.229
		c-0.166,0.021-0.332,0.041-0.498,0.063c-0.969,0.13-1.93,0.288-2.881,0.472c-0.125,0.024-0.246,0.057-0.37,0.082
		c-0.814,0.164-1.625,0.342-2.424,0.547c-0.028,0.007-0.058,0.012-0.086,0.019c0.004,0,0.008,0.001,0.012,0.001
		c2.689,0.239,5.35,0.857,7.913,1.676c3.6,1.151,7.067,2.715,10.388,4.512c6.087,3.294,11.833,7.383,16.618,12.407
		c4.056,4.259,7.278,9.212,9.48,14.668c1.863,4.618,2.989,9.486,3.773,14.395h12.893c0.001-0.125,0.009-0.248,0.009-0.373
		c0-0.937-0.036-1.866-0.088-2.79c-0.02-0.354-0.051-0.704-0.078-1.056c-0.044-0.566-0.098-1.13-0.161-1.691
		C163.589,295.992,163.54,295.58,163.483,295.169z"/>
	<path style="fill:#3C3067;" d="M112.893,266.07c-18.395,0-33.307,14.912-33.307,33.306c0,0.991,0.052,1.97,0.136,2.939
		c1.489,17.017,15.767,30.368,33.17,30.368s31.681-13.351,33.17-30.368c0.085-0.969,0.137-1.948,0.137-2.939
		C146.2,280.981,131.288,266.07,112.893,266.07z"/>
	<circle style="fill:#5A5384;" cx="112.893" cy="299.376" r="17.876"/>
	<circle style="fill:#6D6991;" cx="112.893" cy="299.376" r="9.008"/>
	<polygon style="fill:#F15F3A;" points="377.473,214.36 377.473,225.805 377.473,229.067 393.048,229.067 393.048,225.805 
		393.048,214.36 393.048,204.633 377.473,204.633 	"/>
</g>
</svg>
