<?xml version="1.0" encoding="UTF-8"?>
<!DOCTYPE svg PUBLIC "-//W3C//DTD SVG 1.1//EN" "http://www.w3.org/Graphics/SVG/1.1/DTD/svg11.dtd">
<svg xmlns="http://www.w3.org/2000/svg" version="1.1" width="512px" height="512px" style="shape-rendering:geometricPrecision; text-rendering:geometricPrecision; image-rendering:optimizeQuality; fill-rule:evenodd; clip-rule:evenodd" xmlns:xlink="http://www.w3.org/1999/xlink">
<g><path style="opacity:0.962" fill="#010102" d="M 234.5,7.5 C 306.205,2.6634 366.038,26.6634 414,79.5C 461.04,138.02 474.706,203.687 455,276.5C 427.615,355.883 372.782,404.05 290.5,421C 280.874,437.084 271.374,453.251 262,469.5C 257.667,472.167 253.333,472.167 249,469.5C 240.13,452.922 230.63,436.755 220.5,421C 145.35,406.178 92.5165,363.678 62,293.5C 34.1393,215.5 45.806,144.166 97,79.5C 133.891,38.4708 179.724,14.4708 234.5,7.5 Z"/></g>
<g><path style="opacity:1" fill="#c4e9fb" d="M 263.5,433.5 C 258.775,427.738 254.775,421.404 251.5,414.5C 245.832,413.057 240.165,411.724 234.5,410.5C 233.327,408.496 231.66,406.996 229.5,406C 217.5,404.368 205.834,401.535 194.5,397.5C 109.988,351.346 72.4879,280.013 82,183.5C 95.5331,113.832 134.033,63.4982 197.5,32.5C 266.548,12.8754 328.548,26.042 383.5,72C 436.795,122.892 456.629,184.726 443,257.5C 420.013,341.155 365.847,390.655 280.5,406C 274.196,414.776 268.529,423.943 263.5,433.5 Z"/></g>
<g><path style="opacity:1" fill="#9bd4f7" d="M 197.5,32.5 C 134.033,63.4982 95.5331,113.832 82,183.5C 72.4879,280.013 109.988,351.346 194.5,397.5C 126.092,372.06 83.5922,323.726 67,252.5C 54.8247,173.397 79.9914,109.23 142.5,60C 159.202,47.7019 177.535,38.5352 197.5,32.5 Z"/></g>
<g><path style="opacity:1" fill="#040404" d="M 240.5,55.5 C 310.76,53.197 363.26,82.197 398,142.5C 425.398,202.089 420.398,258.755 383,312.5C 346.053,357.71 298.22,378.544 239.5,375C 175.516,365.995 131.016,331.828 106,272.5C 85.2582,210.926 95.9249,155.593 138,106.5C 166.116,77.3587 200.283,60.3587 240.5,55.5 Z"/></g>
<g><path style="opacity:1" fill="#fdfdfd" d="M 239.5,71.5 C 301.237,68.281 348.403,92.6143 381,144.5C 410.681,203.549 405.015,258.882 364,310.5C 316.994,358.696 261.828,371.196 198.5,348C 148.167,324.315 119.333,284.815 112,229.5C 108.875,168.576 133.042,122.076 184.5,90C 201.929,80.6908 220.262,74.5241 239.5,71.5 Z"/></g>
<g><path style="opacity:1" fill="#040303" d="M 243.5,119.5 C 292.212,117.169 326.212,138.169 345.5,182.5C 364.479,182.211 376.979,190.878 383,208.5C 384.2,234.471 371.7,247.805 345.5,248.5C 326.249,292.976 292.249,313.81 243.5,311C 206.072,304.403 180.072,283.57 165.5,248.5C 139.362,247.864 126.862,234.53 128,208.5C 134.097,190.85 146.597,182.183 165.5,182.5C 180.238,147.418 206.238,126.418 243.5,119.5 Z"/></g>
<g><path style="opacity:1" fill="#f4d9c4" d="M 225.5,289.5 C 195.526,262.061 185.359,228.394 195,188.5C 200.977,168.72 212.144,152.72 228.5,140.5C 234.143,137.92 240.143,136.253 246.5,135.5C 247.498,140.326 248.998,144.993 251,149.5C 255,154.167 259,158.833 263,163.5C 264.202,167.793 263.035,171.293 259.5,174C 252.95,175.42 246.284,175.92 239.5,175.5C 239.5,180.833 239.5,186.167 239.5,191.5C 248.331,192.08 256.998,191.247 265.5,189C 277.489,181.716 281.655,171.216 278,157.5C 274.803,151.297 270.47,145.964 265,141.5C 264.598,140.128 264.098,138.795 263.5,137.5C 274.839,137.327 285.506,140.161 295.5,146C 333.229,171.86 344.062,206.36 328,249.5C 310.284,282.782 282.451,297.949 244.5,295C 237.817,294.247 231.484,292.414 225.5,289.5 Z"/></g>
<g><path style="opacity:1" fill="#e9c6af" d="M 228.5,140.5 C 212.144,152.72 200.977,168.72 195,188.5C 185.359,228.394 195.526,262.061 225.5,289.5C 189.646,272.737 173.146,244.404 176,204.5C 181.699,173.317 199.199,151.983 228.5,140.5 Z"/></g>
<g><path style="opacity:1" fill="#e8c5ae" d="M 154.5,199.5 C 156.5,199.5 158.5,199.5 160.5,199.5C 159.261,210.157 159.261,220.824 160.5,231.5C 145.371,229.25 140.538,220.917 146,206.5C 148.441,203.546 151.275,201.213 154.5,199.5 Z"/></g>
<g><path style="opacity:1" fill="#000000" d="M 207.5,199.5 C 212.833,199.5 218.167,199.5 223.5,199.5C 223.5,207.5 223.5,215.5 223.5,223.5C 218.167,223.5 212.833,223.5 207.5,223.5C 207.5,215.5 207.5,207.5 207.5,199.5 Z"/></g>
<g><path style="opacity:1" fill="#000000" d="M 287.5,199.5 C 292.833,199.5 298.167,199.5 303.5,199.5C 303.5,207.5 303.5,215.5 303.5,223.5C 298.167,223.5 292.833,223.5 287.5,223.5C 287.5,215.5 287.5,207.5 287.5,199.5 Z"/></g>
<g><path style="opacity:1" fill="#e7c5ad" d="M 350.5,199.5 C 365.629,201.75 370.462,210.083 365,224.5C 361.377,229.395 356.544,231.728 350.5,231.5C 351.739,220.824 351.739,210.157 350.5,199.5 Z"/></g>
<g><path style="opacity:1" fill="#030302" d="M 231.5,255.5 C 236.833,255.5 242.167,255.5 247.5,255.5C 249.076,262.955 253.41,265.122 260.5,262C 262.451,260.266 263.451,258.099 263.5,255.5C 268.833,255.5 274.167,255.5 279.5,255.5C 277.772,270.061 269.606,278.061 255,279.5C 240.973,277.64 233.14,269.64 231.5,255.5 Z"/></g>
<g><path style="opacity:1" fill="#9ad2f5" d="M 234.5,410.5 C 240.165,411.724 245.832,413.057 251.5,414.5C 254.775,421.404 258.775,427.738 263.5,433.5C 261.095,437.973 258.429,442.306 255.5,446.5C 247.984,434.801 240.984,422.801 234.5,410.5 Z"/></g>
<g><path style="opacity:1" fill="#000000" d="M 167.5,487.5 C 226.167,487.5 284.833,487.5 343.5,487.5C 343.5,492.833 343.5,498.167 343.5,503.5C 284.833,503.5 226.167,503.5 167.5,503.5C 167.5,498.167 167.5,492.833 167.5,487.5 Z"/></g>
</svg>
