<?xml version="1.0" encoding="UTF-8"?>
<!DOCTYPE svg PUBLIC "-//W3C//DTD SVG 1.1//EN" "http://www.w3.org/Graphics/SVG/1.1/DTD/svg11.dtd">
<svg xmlns="http://www.w3.org/2000/svg" version="1.1" width="512px" height="512px" style="shape-rendering:geometricPrecision; text-rendering:geometricPrecision; image-rendering:optimizeQuality; fill-rule:evenodd; clip-rule:evenodd" xmlns:xlink="http://www.w3.org/1999/xlink">
<g><path style="opacity:0.989" fill="#676fb2" d="M 303.5,55.5 C 236.255,61.0345 188.422,94.3678 160,155.5C 157.2,162.733 154.7,170.066 152.5,177.5C 134.512,178.5 116.512,178.833 98.5,178.5C 98.1667,178.5 97.8333,178.5 97.5,178.5C 93.6967,171.368 93.5301,164.035 97,156.5C 98.5595,152.381 100.393,148.381 102.5,144.5C 101.5,144.167 100.5,143.833 99.5,143.5C 90.9812,144.951 82.6478,147.117 74.5,150C 63.0713,154.548 52.0713,159.882 41.5,166C 29.9518,168.307 21.1185,164.474 15,154.5C 9.89184,136.358 4.72517,118.358 -0.5,100.5C -0.5,95.8333 -0.5,91.1667 -0.5,86.5C 2.4147,78.4227 8.08137,73.256 16.5,71C 60.5985,61.4851 100.765,69.9851 137,96.5C 180.785,55.6715 232.285,40.8381 291.5,52C 295.709,52.8806 299.709,54.0473 303.5,55.5 Z"/></g>
<g><path style="opacity:0.998" fill="#8288ca" d="M 303.5,55.5 C 318.996,58.832 332.829,65.4986 345,75.5C 347.035,78.5612 348.201,81.8945 348.5,85.5C 359.068,84.7868 367.735,88.4535 374.5,96.5C 387.465,110.431 398.465,125.764 407.5,142.5C 407.5,143.167 407.833,143.5 408.5,143.5C 411.287,149.691 413.787,156.024 416,162.5C 417.166,168.247 416.332,173.581 413.5,178.5C 412.833,178.5 412.5,178.833 412.5,179.5C 400.232,180.413 388.899,177.58 378.5,171C 359.014,152.348 339.681,133.515 320.5,114.5C 273.589,158.93 217.589,180.597 152.5,179.5C 134.326,179.83 116.326,179.497 98.5,178.5C 116.512,178.833 134.512,178.5 152.5,177.5C 154.7,170.066 157.2,162.733 160,155.5C 188.422,94.3678 236.255,61.0345 303.5,55.5 Z"/></g>
<g><path style="opacity:0.989" fill="#676fb2" d="M 511.5,86.5 C 511.5,91.1667 511.5,95.8333 511.5,100.5C 506.275,118.358 501.108,136.358 496,154.5C 489.882,164.474 481.048,168.307 469.5,166C 458.929,159.882 447.929,154.548 436.5,150C 427.445,146.569 418.112,144.403 408.5,143.5C 407.833,143.5 407.5,143.167 407.5,142.5C 398.465,125.764 387.465,110.431 374.5,96.5C 410.467,70.0151 450.467,61.5151 494.5,71C 502.919,73.256 508.585,78.4227 511.5,86.5 Z"/></g>
<g><path style="opacity:0.999" fill="#fedcce" d="M 412.5,179.5 C 418.086,206.248 417.752,232.915 411.5,259.5C 394.704,317.63 357.37,355.63 299.5,373.5C 293.555,374.755 287.555,375.755 281.5,376.5C 231.646,366.97 193.98,340.304 168.5,296.5C 172.313,295.833 175.979,295.166 179.5,294.5C 196.448,292.064 204.282,282.398 203,265.5C 201.695,261.203 199.195,257.869 195.5,255.5C 196.122,254.373 196.955,253.373 198,252.5C 198.667,245.833 198.667,239.167 198,232.5C 193.959,227.687 189.625,227.354 185,231.5C 183.596,237.044 183.096,242.71 183.5,248.5C 172.217,245.907 161.884,247.907 152.5,254.5C 145.883,229.593 145.883,204.593 152.5,179.5C 217.589,180.597 273.589,158.93 320.5,114.5C 339.681,133.515 359.014,152.348 378.5,171C 388.899,177.58 400.232,180.413 412.5,179.5 Z"/></g>
<g><path style="opacity:0.99" fill="#ffcbbe" d="M 97.5,178.5 C 97.8333,178.5 98.1667,178.5 98.5,178.5C 116.326,179.497 134.326,179.83 152.5,179.5C 145.883,204.593 145.883,229.593 152.5,254.5C 143.301,263.553 142.134,273.553 149,284.5C 157.367,293.122 167.534,296.456 179.5,294.5C 175.979,295.166 172.313,295.833 168.5,296.5C 193.98,340.304 231.646,366.97 281.5,376.5C 273.726,378.031 265.726,378.698 257.5,378.5C 249.816,378.382 242.149,378.049 234.5,377.5C 226.753,376.583 219.086,375.25 211.5,373.5C 153.642,355.643 116.309,317.643 99.5,259.5C 71.8225,259.988 56.4891,246.488 53.5,219C 56.8502,193.148 71.5169,179.648 97.5,178.5 Z"/></g>
<g><path style="opacity:0.98" fill="#ffcbbe" d="M 413.5,178.5 C 433.319,178.325 447.152,187.325 455,205.5C 461.132,230.736 452.299,248.236 428.5,258C 422.912,259.289 417.245,259.789 411.5,259.5C 417.752,232.915 418.086,206.248 412.5,179.5C 412.5,178.833 412.833,178.5 413.5,178.5 Z"/></g>
<g><path style="opacity:1" fill="#343f41" d="M 195.5,255.5 C 188.733,257.786 184.733,255.453 183.5,248.5C 183.096,242.71 183.596,237.044 185,231.5C 189.625,227.354 193.959,227.687 198,232.5C 198.667,239.167 198.667,245.833 198,252.5C 196.955,253.373 196.122,254.373 195.5,255.5 Z"/></g>
<g><path style="opacity:1" fill="#343f42" d="M 327.5,248.5 C 326.239,255.465 322.239,257.799 315.5,255.5C 314.878,254.373 314.045,253.373 313,252.5C 312.333,245.833 312.333,239.167 313,232.5C 317.041,227.687 321.375,227.354 326,231.5C 327.404,237.044 327.904,242.71 327.5,248.5 Z"/></g>
<g><path style="opacity:1" fill="#343f42" d="M 235.5,240.5 C 240.361,240.43 244.361,242.263 247.5,246C 251.976,248.877 256.643,249.21 261.5,247C 265.039,244.774 268.539,242.607 272,240.5C 279.039,241.922 281.372,245.922 279,252.5C 270.564,261.907 260.064,265.407 247.5,263C 241.416,260.873 236.249,257.373 232,252.5C 230.627,250.305 230.294,247.971 231,245.5C 232.707,243.963 234.207,242.296 235.5,240.5 Z"/></g>
<g><path style="opacity:1" fill="#fe8e9e" d="M 183.5,248.5 C 184.733,255.453 188.733,257.786 195.5,255.5C 199.195,257.869 201.695,261.203 203,265.5C 204.282,282.398 196.448,292.064 179.5,294.5C 167.534,296.456 157.367,293.122 149,284.5C 142.134,273.553 143.301,263.553 152.5,254.5C 161.884,247.907 172.217,245.907 183.5,248.5 Z"/></g>
<g><path style="opacity:1" fill="#fe8e9e" d="M 315.5,255.5 C 322.239,257.799 326.239,255.465 327.5,248.5C 341.276,245.902 353.109,249.569 363,259.5C 370.092,276.821 364.592,288.321 346.5,294C 335.786,296.59 325.786,294.924 316.5,289C 307.907,281.887 305.407,273.054 309,262.5C 310.666,259.669 312.832,257.336 315.5,255.5 Z"/></g>
<g><path style="opacity:0.986" fill="#ff8e9e" d="M 211.5,373.5 C 219.086,375.25 226.753,376.583 234.5,377.5C 235.952,378.302 237.618,378.802 239.5,379C 219.405,394.357 207.405,414.523 203.5,439.5C 192.503,437.167 181.836,433.834 171.5,429.5C 177.006,405.125 190.339,386.458 211.5,373.5 Z"/></g>
<g><path style="opacity:0.995" fill="#ffb5bf" d="M 299.5,373.5 C 320.659,386.451 333.992,405.118 339.5,429.5C 329.02,433.438 318.354,436.771 307.5,439.5C 307.5,447.167 307.5,454.833 307.5,462.5C 272.833,462.5 238.167,462.5 203.5,462.5C 203.5,454.833 203.5,447.167 203.5,439.5C 207.405,414.523 219.405,394.357 239.5,379C 237.618,378.802 235.952,378.302 234.5,377.5C 242.149,378.049 249.816,378.382 257.5,378.5C 265.726,378.698 273.726,378.031 281.5,376.5C 287.555,375.755 293.555,374.755 299.5,373.5 Z"/></g>
<g><path style="opacity:0.985" fill="#ffcbbd" d="M 171.5,429.5 C 181.836,433.834 192.503,437.167 203.5,439.5C 203.5,447.167 203.5,454.833 203.5,462.5C 191.833,462.5 180.167,462.5 168.5,462.5C 168.434,451.348 169.434,440.348 171.5,429.5 Z"/></g>
<g><path style="opacity:0.983" fill="#ffdccf" d="M 339.5,429.5 C 341.566,440.348 342.566,451.348 342.5,462.5C 330.833,462.5 319.167,462.5 307.5,462.5C 307.5,454.833 307.5,447.167 307.5,439.5C 318.354,436.771 329.02,433.438 339.5,429.5 Z"/></g>
</svg>
