<?xml version="1.0" encoding="UTF-8"?>
<!DOCTYPE svg PUBLIC "-//W3C//DTD SVG 1.1//EN" "http://www.w3.org/Graphics/SVG/1.1/DTD/svg11.dtd">
<svg xmlns="http://www.w3.org/2000/svg" version="1.1" width="512px" height="512px" style="shape-rendering:geometricPrecision; text-rendering:geometricPrecision; image-rendering:optimizeQuality; fill-rule:evenodd; clip-rule:evenodd" xmlns:xlink="http://www.w3.org/1999/xlink">
<g><path style="opacity:0.988" fill="#1d2d6a" d="M 241.5,74.5 C 282.879,71.1083 316.046,85.775 341,118.5C 360.107,148.998 363.774,181.332 352,215.5C 338.493,248.18 314.659,268.847 280.5,277.5C 280.667,324.501 280.5,371.501 280,418.5C 274.494,433.009 263.994,438.842 248.5,436C 239.333,433.5 233.5,427.667 231,418.5C 230.5,371.501 230.333,324.501 230.5,277.5C 189.647,266.145 164.147,239.812 154,198.5C 146.605,147.125 165.439,108.958 210.5,84C 220.549,79.4804 230.882,76.3137 241.5,74.5 Z"/></g>
<g><path style="opacity:0.999" fill="#e85847" d="M 271.5,90.5 C 283.126,111.224 289.626,133.557 291,157.5C 293.396,189.667 289.396,221 279,251.5C 277.226,256.07 274.726,260.07 271.5,263.5C 269.811,264.931 267.811,265.764 265.5,266C 257.452,266.77 249.452,266.603 241.5,265.5C 232.718,253.177 226.884,239.511 224,224.5C 218.016,192.826 218.016,161.159 224,129.5C 226.934,115.517 232.1,102.517 239.5,90.5C 250.224,88.0619 260.891,88.0619 271.5,90.5 Z"/></g>
<g><path style="opacity:1" fill="#ee7e71" d="M 239.5,90.5 C 232.1,102.517 226.934,115.517 224,129.5C 218.016,161.159 218.016,192.826 224,224.5C 226.884,239.511 232.718,253.177 241.5,265.5C 202.009,256.842 177.509,232.842 168,193.5C 162.688,146.508 181.521,113.342 224.5,94C 229.302,91.8974 234.302,90.7308 239.5,90.5 Z"/></g>
<g><path style="opacity:1" fill="#e7383b" d="M 271.5,90.5 C 304.084,96.9101 326.584,115.577 339,146.5C 350.856,185.247 342.023,218.413 312.5,246C 301.094,255.368 288.094,261.535 273.5,264.5C 272.584,264.457 271.917,264.124 271.5,263.5C 274.726,260.07 277.226,256.07 279,251.5C 289.396,221 293.396,189.667 291,157.5C 289.626,133.557 283.126,111.224 271.5,90.5 Z"/></g>
<g><path style="opacity:1" fill="#88a9da" d="M 250.5,280.5 C 250.832,327.336 250.499,374.003 249.5,420.5C 247.066,419.229 245.566,417.229 245,414.5C 244.5,369.835 244.333,325.168 244.5,280.5C 246.5,280.5 248.5,280.5 250.5,280.5 Z"/></g>
<g><path style="opacity:0.984" fill="#6186c4" d="M 250.5,280.5 C 253.833,280.5 257.167,280.5 260.5,280.5C 260.5,327.167 260.5,373.833 260.5,420.5C 256.833,423.167 253.167,423.167 249.5,420.5C 250.499,374.003 250.832,327.336 250.5,280.5 Z"/></g>
<g><path style="opacity:1" fill="#4a66af" d="M 260.5,280.5 C 262.5,280.5 264.5,280.5 266.5,280.5C 266.667,324.835 266.5,369.168 266,413.5C 265.568,417.072 263.735,419.405 260.5,420.5C 260.5,373.833 260.5,327.167 260.5,280.5 Z"/></g>
</svg>
