<?xml version="1.0" encoding="UTF-8"?>
<!DOCTYPE svg PUBLIC "-//W3C//DTD SVG 1.1//EN" "http://www.w3.org/Graphics/SVG/1.1/DTD/svg11.dtd">
<svg xmlns="http://www.w3.org/2000/svg" version="1.1" width="512px" height="512px" style="shape-rendering:geometricPrecision; text-rendering:geometricPrecision; image-rendering:optimizeQuality; fill-rule:evenodd; clip-rule:evenodd" xmlns:xlink="http://www.w3.org/1999/xlink">
<g><path style="opacity:0.99" fill="#fd8087" d="M 60.5,-0.5 C 68.8333,-0.5 77.1667,-0.5 85.5,-0.5C 92.9299,0.977582 99.9299,3.64425 106.5,7.5C 116.668,28.12 117.002,48.7867 107.5,69.5C 104.961,54.2482 96.294,44.4149 81.5,40C 59.8963,37.046 45.7296,45.8794 39,66.5C 38.0596,95.227 51.8929,108.727 80.5,107C 83.2916,106.458 85.9583,105.624 88.5,104.5C 78.2529,120.598 66.2529,135.431 52.5,149C 48.0264,152.122 43.0264,153.289 37.5,152.5C 20.2256,133.63 8.39228,111.63 2,86.5C -3.08605,52.5161 8.74729,26.3494 37.5,8C 44.8925,4.0817 52.5592,1.24836 60.5,-0.5 Z"/></g>
<g><path style="opacity:1" fill="#fd646f" d="M 106.5,7.5 C 133.829,22.574 146.829,45.9073 145.5,77.5C 143.053,91.5045 138.386,104.838 131.5,117.5C 121.801,135.044 110.301,151.377 97,166.5C 91.4687,172.366 85.6353,177.866 79.5,183C 73.4453,185.368 67.7787,184.701 62.5,181C 53.5631,171.905 45.2298,162.405 37.5,152.5C 43.0264,153.289 48.0264,152.122 52.5,149C 66.2529,135.431 78.2529,120.598 88.5,104.5C 101.854,96.8004 108.188,85.1337 107.5,69.5C 117.002,48.7867 116.668,28.12 106.5,7.5 Z"/></g>
<g><path style="opacity:1" fill="#faf6f6" d="M 107.5,69.5 C 108.188,85.1337 101.854,96.8004 88.5,104.5C 85.9583,105.624 83.2916,106.458 80.5,107C 51.8929,108.727 38.0596,95.227 39,66.5C 45.7296,45.8794 59.8963,37.046 81.5,40C 96.294,44.4149 104.961,54.2482 107.5,69.5 Z"/></g>
<g><path style="opacity:0.993" fill="#60b6fe" d="M 388.5,69.5 C 388.412,103.915 371.412,117.915 337.5,111.5C 334.348,98.6105 337.348,87.2772 346.5,77.5C 353.496,69.7656 362.33,65.7656 373,65.5C 378.549,65.831 383.716,67.1643 388.5,69.5 Z"/></g>
<g><path style="opacity:1" fill="#28a6fd" d="M 388.5,69.5 C 396.109,72.7762 401.776,78.1095 405.5,85.5C 411.848,100.267 410.515,114.267 401.5,127.5C 385.929,142.204 368.929,144.038 350.5,133C 345.137,128.814 341.137,123.647 338.5,117.5C 338.167,115.5 337.833,113.5 337.5,111.5C 371.412,117.915 388.412,103.915 388.5,69.5 Z"/></g>
<g><path style="opacity:0.976" fill="#918190" d="M 145.5,77.5 C 212.5,77.5 279.5,77.5 346.5,77.5C 337.348,87.2772 334.348,98.6105 337.5,111.5C 337.833,113.5 338.167,115.5 338.5,117.5C 269.5,117.5 200.5,117.5 131.5,117.5C 138.386,104.838 143.053,91.5045 145.5,77.5 Z"/></g>
<g><path style="opacity:0.98" fill="#918291" d="M 405.5,85.5 C 449,104.456 471.666,137.789 473.5,185.5C 472.114,227.666 453.447,259.499 417.5,281C 406.171,286.999 394.171,290.999 381.5,293C 322.521,294.46 263.521,294.96 204.5,294.5C 212.51,281.689 213.51,268.356 207.5,254.5C 261.501,254.667 315.501,254.5 369.5,254C 408.672,248.161 430.005,225.494 433.5,186C 432.349,161.192 421.683,141.692 401.5,127.5C 410.515,114.267 411.848,100.267 405.5,85.5 Z"/></g>
<g><path style="opacity:0.992" fill="#fee076" d="M 190.5,238.5 C 192.491,261.37 182.491,275.87 160.5,282C 155.833,282.667 151.167,282.667 146.5,282C 144.112,281.697 141.945,280.863 140,279.5C 139.536,280.094 139.369,280.761 139.5,281.5C 138.005,273.539 138.339,265.539 140.5,257.5C 149.662,238.592 164.662,231.425 185.5,236C 187.491,236.374 189.158,237.207 190.5,238.5 Z"/></g>
<g><path style="opacity:1" fill="#fed15b" d="M 190.5,238.5 C 198.109,241.776 203.776,247.11 207.5,254.5C 213.51,268.356 212.51,281.689 204.5,294.5C 193.274,307.314 179.274,311.481 162.5,307C 156.795,304.822 151.795,301.655 147.5,297.5C 143.795,292.756 141.128,287.423 139.5,281.5C 139.369,280.761 139.536,280.094 140,279.5C 141.945,280.863 144.112,281.697 146.5,282C 151.167,282.667 155.833,282.667 160.5,282C 182.491,275.87 192.491,261.37 190.5,238.5 Z"/></g>
<g><path style="opacity:0.984" fill="#918291" d="M 140.5,257.5 C 138.339,265.539 138.005,273.539 139.5,281.5C 141.128,287.423 143.795,292.756 147.5,297.5C 111.901,312.349 96.7343,339.015 102,377.5C 109.829,406.33 128.329,423.83 157.5,430C 171.47,431.262 185.47,431.762 199.5,431.5C 194.012,440.125 192.345,449.459 194.5,459.5C 195.267,463.698 196.601,467.698 198.5,471.5C 183.476,471.698 168.476,471.198 153.5,470C 101.128,459.628 70.295,428.128 61,375.5C 57.6087,329.451 75.1087,293.951 113.5,269C 122.063,264.049 131.063,260.216 140.5,257.5 Z"/></g>
<g><path style="opacity:0.991" fill="#fc8087" d="M 471.5,334.5 C 474.356,340.903 476.523,347.569 478,354.5C 478.667,362.833 478.667,371.167 478,379.5C 476.916,385.535 475.083,391.202 472.5,396.5C 465.591,371.544 449.591,362.377 424.5,369C 402.37,382.353 397.87,400.187 411,422.5C 422.552,435.178 436.386,438.511 452.5,432.5C 450.969,435.899 449.135,439.233 447,442.5C 437.243,454.928 426.743,466.761 415.5,478C 411.569,479.807 407.569,480.974 403.5,481.5C 400.5,478.167 397.5,474.833 394.5,471.5C 386.581,459.351 379.581,446.517 373.5,433C 373.164,431.97 372.497,431.47 371.5,431.5C 358.621,396.857 365.621,367.024 392.5,342C 417.376,324.321 443.709,321.821 471.5,334.5 Z"/></g>
<g><path style="opacity:1" fill="#fe646f" d="M 471.5,334.5 C 499.565,350.624 512.399,374.957 510,407.5C 507.006,424.814 500.673,440.814 491,455.5C 477.729,476.401 461.895,495.068 443.5,511.5C 439.833,511.5 436.167,511.5 432.5,511.5C 421.514,502.846 411.847,492.846 403.5,481.5C 407.569,480.974 411.569,479.807 415.5,478C 426.743,466.761 437.243,454.928 447,442.5C 449.135,439.233 450.969,435.899 452.5,432.5C 466.965,424.91 473.631,412.91 472.5,396.5C 475.083,391.202 476.916,385.535 478,379.5C 478.667,371.167 478.667,362.833 478,354.5C 476.523,347.569 474.356,340.903 471.5,334.5 Z"/></g>
<g><path style="opacity:1" fill="#faf5f6" d="M 472.5,396.5 C 473.631,412.91 466.965,424.91 452.5,432.5C 436.386,438.511 422.552,435.178 411,422.5C 397.87,400.187 402.37,382.353 424.5,369C 449.591,362.377 465.591,371.544 472.5,396.5 Z"/></g>
<g><path style="opacity:0.994" fill="#9ae59c" d="M 247.5,419.5 C 246.922,450.241 231.255,464.408 200.5,462C 198.359,461.427 196.359,460.594 194.5,459.5C 192.345,449.459 194.012,440.125 199.5,431.5C 209.317,417.774 222.65,412.607 239.5,416C 242.476,416.705 245.142,417.871 247.5,419.5 Z"/></g>
<g><path style="opacity:1" fill="#70d7a2" d="M 247.5,419.5 C 253.374,422.102 258.04,426.102 261.5,431.5C 269.082,444.603 269.416,457.937 262.5,471.5C 249.518,489.071 232.852,493.571 212.5,485C 206.67,481.669 202.003,477.169 198.5,471.5C 196.601,467.698 195.267,463.698 194.5,459.5C 196.359,460.594 198.359,461.427 200.5,462C 231.255,464.408 246.922,450.241 247.5,419.5 Z"/></g>
<g><path style="opacity:1" fill="#918291" d="M 261.5,431.5 C 298.167,431.5 334.833,431.5 371.5,431.5C 372.497,431.47 373.164,431.97 373.5,433C 379.581,446.517 386.581,459.351 394.5,471.5C 350.5,471.5 306.5,471.5 262.5,471.5C 269.416,457.937 269.082,444.603 261.5,431.5 Z"/></g>
</svg>
