<?xml version="1.0" encoding="UTF-8"?>
<!DOCTYPE svg PUBLIC "-//W3C//DTD SVG 1.1//EN" "http://www.w3.org/Graphics/SVG/1.1/DTD/svg11.dtd">
<svg xmlns="http://www.w3.org/2000/svg" version="1.1" width="512px" height="512px" style="shape-rendering:geometricPrecision; text-rendering:geometricPrecision; image-rendering:optimizeQuality; fill-rule:evenodd; clip-rule:evenodd" xmlns:xlink="http://www.w3.org/1999/xlink">
<g><path style="opacity:0.995" fill="#0f1445" d="M 72.5,-0.5 C 81.1667,-0.5 89.8333,-0.5 98.5,-0.5C 98.5,8.5 98.5,17.5 98.5,26.5C 83.9244,43.4143 83.9244,60.4143 98.5,77.5C 98.5,87.8333 98.5,98.1667 98.5,108.5C 83.879,125.484 83.879,142.484 98.5,159.5C 98.5,169.833 98.5,180.167 98.5,190.5C 85.6325,204.653 84.1325,219.987 94,236.5C 100.814,244.991 109.648,249.324 120.5,249.5C 120.833,249.5 121.167,249.5 121.5,249.5C 136.136,248.693 146.47,241.693 152.5,228.5C 160.167,228.5 167.833,228.5 175.5,228.5C 176.496,213.342 176.83,198.009 176.5,182.5C 198.167,182.5 219.833,182.5 241.5,182.5C 240.695,201.304 231.028,212.304 212.5,215.5C 212.666,225.172 212.5,234.839 212,244.5C 211.535,245.931 210.701,247.097 209.5,248C 198.603,249.454 187.603,249.954 176.5,249.5C 176.851,255.262 176.351,260.928 175,266.5C 172.703,269.98 169.536,271.98 165.5,272.5C 155.167,272.5 144.833,272.5 134.5,272.5C 125.5,272.5 116.5,272.5 107.5,272.5C 96.1618,272.667 84.8284,272.5 73.5,272C 70.8293,270.75 68.6626,268.917 67,266.5C 65.6746,261.599 65.1746,256.599 65.5,251.5C 55.1613,251.666 44.828,251.5 34.5,251C 32.2739,249.773 30.7739,247.939 30,245.5C 29.5002,236.173 29.3335,226.839 29.5,217.5C 25.2677,217.222 21.2677,216.056 17.5,214C 13.3322,210.664 9.33222,207.164 5.5,203.5C 2.49308,198.472 0.493078,193.138 -0.5,187.5C -0.5,186.5 -0.5,185.5 -0.5,184.5C 3.16667,184.5 6.83333,184.5 10.5,184.5C 28.8333,184.5 47.1667,184.5 65.5,184.5C 65.5,179.167 65.5,173.833 65.5,168.5C 54.3971,168.954 43.3971,168.454 32.5,167C 31.2986,166.097 30.4652,164.931 30,163.5C 29.8296,154.657 29.3296,145.99 28.5,137.5C 28.5299,136.503 28.0299,135.836 27,135.5C 11.3209,131.326 2.15422,121.326 -0.5,105.5C -0.5,104.167 -0.5,102.833 -0.5,101.5C 17.1667,101.5 34.8333,101.5 52.5,101.5C 56.8333,101.5 61.1667,101.5 65.5,101.5C 65.5,96.8333 65.5,92.1667 65.5,87.5C 64.5,87.5 63.5,87.5 62.5,87.5C 52.8276,87.6665 43.1609,87.4998 33.5,87C 30.8917,85.6217 29.3917,83.455 29,80.5C 28.5002,71.5062 28.3336,62.5062 28.5,53.5C 16.8732,52.0552 8.37324,46.0552 3,35.5C 1.50858,31.4569 0.341911,27.4569 -0.5,23.5C -0.5,22.5 -0.5,21.5 -0.5,20.5C 21.5,20.5 43.5,20.5 65.5,20.5C 65.3342,15.8215 65.5008,11.1548 66,6.5C 67.6941,3.64238 69.8607,1.30904 72.5,-0.5 Z"/></g>
<g><path style="opacity:0.999" fill="#1f2d63" d="M 98.5,-0.5 C 122.167,-0.5 145.833,-0.5 169.5,-0.5C 174.698,2.22666 177.032,6.55999 176.5,12.5C 176.5,12.8333 176.5,13.1667 176.5,13.5C 175.501,84.9981 175.167,156.665 175.5,228.5C 167.833,228.5 160.167,228.5 152.5,228.5C 157.759,208.858 151.426,194.358 133.5,185C 130.883,184.178 128.216,183.678 125.5,183.5C 121.833,182.167 118.167,182.167 114.5,183.5C 108.69,184.738 103.357,187.072 98.5,190.5C 98.5,180.167 98.5,169.833 98.5,159.5C 104.857,164.731 112.191,167.398 120.5,167.5C 120.833,167.5 121.167,167.5 121.5,167.5C 144.883,164.414 155.716,151.081 154,127.5C 150.583,113.249 141.749,104.582 127.5,101.5C 123.167,100.167 118.833,100.167 114.5,101.5C 108.69,102.738 103.357,105.072 98.5,108.5C 98.5,98.1667 98.5,87.8333 98.5,77.5C 105.001,82.4154 112.334,85.0821 120.5,85.5C 120.833,85.5 121.167,85.5 121.5,85.5C 142.194,83.3056 153.194,71.8056 154.5,51C 152.876,33.5547 143.543,23.0547 126.5,19.5C 124.735,18.5386 122.735,18.2053 120.5,18.5C 112.339,18.915 105.005,21.5816 98.5,26.5C 98.5,17.5 98.5,8.5 98.5,-0.5 Z"/></g>
<g><path style="opacity:0.996" fill="#aee5fe" d="M 473.5,122.5 C 393.5,122.5 313.5,122.5 233.5,122.5C 238.728,116.154 241.395,108.82 241.5,100.5C 231.833,100.5 222.167,100.5 212.5,100.5C 200.678,99.5049 188.678,99.1716 176.5,99.5C 176.5,94.8333 176.5,90.1667 176.5,85.5C 187.578,85.9312 198.578,85.4312 209.5,84C 210.701,83.0975 211.535,81.9308 212,80.5C 212.5,70.8391 212.666,61.1724 212.5,51.5C 231.034,48.2994 240.7,37.2994 241.5,18.5C 219.833,18.5 198.167,18.5 176.5,18.5C 176.5,16.8333 176.5,15.1667 176.5,13.5C 176.5,13.1667 176.5,12.8333 176.5,12.5C 264.655,-12.5669 344.988,2.59979 417.5,58C 439.815,76.5542 458.481,98.0542 473.5,122.5 Z"/></g>
<g><path style="opacity:1" fill="#0f1446" d="M 176.5,18.5 C 198.167,18.5 219.833,18.5 241.5,18.5C 240.7,37.2994 231.034,48.2994 212.5,51.5C 212.666,61.1724 212.5,70.8391 212,80.5C 211.535,81.9308 210.701,83.0975 209.5,84C 198.578,85.4312 187.578,85.9312 176.5,85.5C 176.5,63.1667 176.5,40.8333 176.5,18.5 Z"/></g>
<g><path style="opacity:1" fill="#da1428" d="M 120.5,18.5 C 120.5,40.8333 120.5,63.1667 120.5,85.5C 112.334,85.0821 105.001,82.4154 98.5,77.5C 83.9244,60.4143 83.9244,43.4143 98.5,26.5C 105.005,21.5816 112.339,18.915 120.5,18.5 Z"/></g>
<g><path style="opacity:1" fill="#b9283e" d="M 120.5,18.5 C 122.735,18.2053 124.735,18.5386 126.5,19.5C 124.833,19.5 123.167,19.5 121.5,19.5C 121.5,41.5 121.5,63.5 121.5,85.5C 121.167,85.5 120.833,85.5 120.5,85.5C 120.5,63.1667 120.5,40.8333 120.5,18.5 Z"/></g>
<g><path style="opacity:1" fill="#fd3b3c" d="M 126.5,19.5 C 143.543,23.0547 152.876,33.5547 154.5,51C 153.194,71.8056 142.194,83.3056 121.5,85.5C 121.5,63.5 121.5,41.5 121.5,19.5C 123.167,19.5 124.833,19.5 126.5,19.5 Z"/></g>
<g><path style="opacity:1" fill="#314567" d="M 176.5,13.5 C 176.5,15.1667 176.5,16.8333 176.5,18.5C 176.5,40.8333 176.5,63.1667 176.5,85.5C 176.5,90.1667 176.5,94.8333 176.5,99.5C 188.678,99.1716 200.678,99.5049 212.5,100.5C 200.5,100.5 188.5,100.5 176.5,100.5C 176.5,122.5 176.5,144.5 176.5,166.5C 186.5,166.5 196.5,166.5 206.5,166.5C 196.681,167.494 186.681,167.827 176.5,167.5C 176.5,172.5 176.5,177.5 176.5,182.5C 176.83,198.009 176.496,213.342 175.5,228.5C 175.167,156.665 175.501,84.9981 176.5,13.5 Z"/></g>
<g><path style="opacity:0.942" fill="#73c8f0" d="M 62.5,87.5 C 63.5,87.5 64.5,87.5 65.5,87.5C 65.5,92.1667 65.5,96.8333 65.5,101.5C 61.1667,101.5 56.8333,101.5 52.5,101.5C 55.8428,96.8041 59.1762,92.1374 62.5,87.5 Z"/></g>
<g><path style="opacity:1" fill="#0f1446" d="M 212.5,100.5 C 222.167,100.5 231.833,100.5 241.5,100.5C 241.395,108.82 238.728,116.154 233.5,122.5C 227.91,128.38 221.077,132.046 213,133.5C 212.667,143.167 212.333,152.833 212,162.5C 210.549,164.464 208.716,165.797 206.5,166.5C 196.5,166.5 186.5,166.5 176.5,166.5C 176.5,144.5 176.5,122.5 176.5,100.5C 188.5,100.5 200.5,100.5 212.5,100.5 Z"/></g>
<g><path style="opacity:1" fill="#fcc107" d="M 114.5,101.5 C 116.5,101.5 118.5,101.5 120.5,101.5C 120.5,123.5 120.5,145.5 120.5,167.5C 112.191,167.398 104.857,164.731 98.5,159.5C 83.879,142.484 83.879,125.484 98.5,108.5C 103.357,105.072 108.69,102.738 114.5,101.5 Z"/></g>
<g><path style="opacity:1" fill="#c4a73b" d="M 114.5,101.5 C 118.833,100.167 123.167,100.167 127.5,101.5C 125.5,101.5 123.5,101.5 121.5,101.5C 121.5,123.5 121.5,145.5 121.5,167.5C 121.167,167.5 120.833,167.5 120.5,167.5C 120.5,145.5 120.5,123.5 120.5,101.5C 118.5,101.5 116.5,101.5 114.5,101.5 Z"/></g>
<g><path style="opacity:1" fill="#fce45a" d="M 127.5,101.5 C 141.749,104.582 150.583,113.249 154,127.5C 155.716,151.081 144.883,164.414 121.5,167.5C 121.5,145.5 121.5,123.5 121.5,101.5C 123.5,101.5 125.5,101.5 127.5,101.5 Z"/></g>
<g><path style="opacity:1" fill="#64bb10" d="M 233.5,122.5 C 313.5,122.5 393.5,122.5 473.5,122.5C 480.552,133.938 486.552,145.938 491.5,158.5C 387.969,217.765 284.302,276.765 180.5,335.5C 162.627,317.123 147.627,296.623 135.5,274C 145.675,273.83 155.675,273.33 165.5,272.5C 169.536,271.98 172.703,269.98 175,266.5C 176.351,260.928 176.851,255.262 176.5,249.5C 187.603,249.954 198.603,249.454 209.5,248C 210.701,247.097 211.535,245.931 212,244.5C 212.5,234.839 212.666,225.172 212.5,215.5C 231.028,212.304 240.695,201.304 241.5,182.5C 219.833,182.5 198.167,182.5 176.5,182.5C 176.5,177.5 176.5,172.5 176.5,167.5C 186.681,167.827 196.681,167.494 206.5,166.5C 208.716,165.797 210.549,164.464 212,162.5C 212.333,152.833 212.667,143.167 213,133.5C 221.077,132.046 227.91,128.38 233.5,122.5 Z"/></g>
<g><path style="opacity:0.99" fill="#18a003" d="M 28.5,137.5 C 29.3296,145.99 29.8296,154.657 30,163.5C 30.4652,164.931 31.2986,166.097 32.5,167C 43.3971,168.454 54.3971,168.954 65.5,168.5C 65.5,173.833 65.5,179.167 65.5,184.5C 47.1667,184.5 28.8333,184.5 10.5,184.5C 14.9264,168.219 20.9264,152.553 28.5,137.5 Z"/></g>
<g><path style="opacity:0.999" fill="#a5a0a9" d="M 491.5,158.5 C 494.539,165.273 497.206,172.273 499.5,179.5C 420.167,224.833 340.833,270.167 261.5,315.5C 240.139,327.512 218.806,339.512 197.5,351.5C 192.136,346.135 186.469,341.135 180.5,336.5C 180.5,336.167 180.5,335.833 180.5,335.5C 284.302,276.765 387.969,217.765 491.5,158.5 Z"/></g>
<g><path style="opacity:0.998" fill="#fdfdfd" d="M 499.5,179.5 C 501.577,186.063 503.243,192.73 504.5,199.5C 426.969,244.098 349.302,288.431 271.5,332.5C 271.062,332.565 270.728,332.399 270.5,332C 273.692,326.499 272.692,321.833 267.5,318C 265.277,317.434 263.277,316.6 261.5,315.5C 340.833,270.167 420.167,224.833 499.5,179.5 Z"/></g>
<g><path style="opacity:1" fill="#18a101" d="M 114.5,183.5 C 116.5,183.5 118.5,183.5 120.5,183.5C 120.5,205.5 120.5,227.5 120.5,249.5C 109.648,249.324 100.814,244.991 94,236.5C 84.1325,219.987 85.6325,204.653 98.5,190.5C 103.357,187.072 108.69,184.738 114.5,183.5 Z"/></g>
<g><path style="opacity:1" fill="#328a1f" d="M 114.5,183.5 C 118.167,182.167 121.833,182.167 125.5,183.5C 124.167,183.5 122.833,183.5 121.5,183.5C 121.5,205.5 121.5,227.5 121.5,249.5C 121.167,249.5 120.833,249.5 120.5,249.5C 120.5,227.5 120.5,205.5 120.5,183.5C 118.5,183.5 116.5,183.5 114.5,183.5 Z"/></g>
<g><path style="opacity:1" fill="#63ba10" d="M 125.5,183.5 C 128.216,183.678 130.883,184.178 133.5,185C 151.426,194.358 157.759,208.858 152.5,228.5C 146.47,241.693 136.136,248.693 121.5,249.5C 121.5,227.5 121.5,205.5 121.5,183.5C 122.833,183.5 124.167,183.5 125.5,183.5 Z"/></g>
<g><path style="opacity:0.998" fill="#a5a0aa" d="M 504.5,199.5 C 508.154,215.414 510.487,231.414 511.5,247.5C 511.5,252.833 511.5,258.167 511.5,263.5C 509.91,303.859 499.577,341.859 480.5,377.5C 455.828,390.336 429.828,399.502 402.5,405C 401.944,405.383 401.611,405.883 401.5,406.5C 398.192,401.231 394.858,395.898 391.5,390.5C 379.643,396.926 367.976,403.592 356.5,410.5C 321.213,408.806 287.213,400.972 254.5,387C 241.124,380.316 228.124,373.15 215.5,365.5C 234.167,354.5 252.833,343.5 271.5,332.5C 349.302,288.431 426.969,244.098 504.5,199.5 Z"/></g>
<g><path style="opacity:0.997" fill="#18a200" d="M 5.5,203.5 C 9.33222,207.164 13.3322,210.664 17.5,214C 21.2677,216.056 25.2677,217.222 29.5,217.5C 29.3335,226.839 29.5002,236.173 30,245.5C 30.7739,247.939 32.2739,249.773 34.5,251C 44.828,251.5 55.1613,251.666 65.5,251.5C 65.1746,256.599 65.6746,261.599 67,266.5C 68.6626,268.917 70.8293,270.75 73.5,272C 84.8284,272.5 96.1618,272.667 107.5,272.5C 107.5,307.833 107.5,343.167 107.5,378.5C 88.4998,388.664 69.8331,399.331 51.5,410.5C 19.0918,366.948 1.75848,317.948 -0.5,263.5C -0.5,258.167 -0.5,252.833 -0.5,247.5C 0.542489,232.807 2.54249,218.141 5.5,203.5 Z"/></g>
<g><path style="opacity:0.998" fill="#1f2e64" d="M 107.5,272.5 C 116.5,272.5 125.5,272.5 134.5,272.5C 134.5,302.5 134.5,332.5 134.5,362.5C 134.5,370.833 134.5,379.167 134.5,387.5C 134.5,395.5 134.5,403.5 134.5,411.5C 134.5,434.833 134.5,458.167 134.5,481.5C 124.958,476.57 115.958,470.903 107.5,464.5C 107.5,452.167 107.5,439.833 107.5,427.5C 107.5,419.5 107.5,411.5 107.5,403.5C 107.5,395.167 107.5,386.833 107.5,378.5C 107.5,343.167 107.5,307.833 107.5,272.5 Z"/></g>
<g><path style="opacity:1" fill="#1ba202" d="M 134.5,272.5 C 144.833,272.5 155.167,272.5 165.5,272.5C 155.675,273.33 145.675,273.83 135.5,274C 147.627,296.623 162.627,317.123 180.5,335.5C 180.5,335.833 180.5,336.167 180.5,336.5C 164.927,344.738 149.594,353.405 134.5,362.5C 134.5,332.5 134.5,302.5 134.5,272.5 Z"/></g>
<g><path style="opacity:1" fill="#e5dbdb" d="M 261.5,315.5 C 263.277,316.6 265.277,317.434 267.5,318C 272.692,321.833 273.692,326.499 270.5,332C 270.728,332.399 271.062,332.565 271.5,332.5C 252.833,343.5 234.167,354.5 215.5,365.5C 188.338,380.58 161.338,395.914 134.5,411.5C 134.5,403.5 134.5,395.5 134.5,387.5C 155.671,375.749 176.671,363.749 197.5,351.5C 218.806,339.512 240.139,327.512 261.5,315.5 Z"/></g>
<g><path style="opacity:1" fill="#828291" d="M 180.5,336.5 C 186.469,341.135 192.136,346.135 197.5,351.5C 176.671,363.749 155.671,375.749 134.5,387.5C 134.5,379.167 134.5,370.833 134.5,362.5C 149.594,353.405 164.927,344.738 180.5,336.5 Z"/></g>
<g><path style="opacity:1" fill="#fdfdfd" d="M 463.5,348.5 C 464.496,348.414 465.329,348.748 466,349.5C 468.968,354.602 471.801,359.769 474.5,365C 462.694,372.407 450.694,379.573 438.5,386.5C 435.167,380.833 431.833,375.167 428.5,369.5C 440.396,362.726 452.063,355.726 463.5,348.5 Z"/></g>
<g><path style="opacity:0.995" fill="#828291" d="M 215.5,365.5 C 228.124,373.15 241.124,380.316 254.5,387C 287.213,400.972 321.213,408.806 356.5,410.5C 355.957,410.56 355.624,410.893 355.5,411.5C 358.287,417.437 361.787,422.77 366,427.5C 378.458,421.362 390.291,414.362 401.5,406.5C 401.611,405.883 401.944,405.383 402.5,405C 429.828,399.502 455.828,390.336 480.5,377.5C 435.705,456.423 368.039,501.09 277.5,511.5C 262.833,511.5 248.167,511.5 233.5,511.5C 230.167,510.833 226.833,510.167 223.5,509.5C 234.303,503.598 244.969,497.431 255.5,491C 252.44,485.033 248.774,479.533 244.5,474.5C 232.337,481.08 220.337,487.914 208.5,495C 211.674,499.526 214.008,504.026 215.5,508.5C 186.781,504.483 159.781,495.483 134.5,481.5C 134.5,458.167 134.5,434.833 134.5,411.5C 161.338,395.914 188.338,380.58 215.5,365.5 Z"/></g>
<g><path style="opacity:0.994" fill="#828290" d="M 107.5,378.5 C 107.5,386.833 107.5,395.167 107.5,403.5C 96.031,409.735 84.6977,416.235 73.5,423C 70.6907,424.741 67.6907,425.908 64.5,426.5C 60.1667,421.167 55.8333,415.833 51.5,410.5C 69.8331,399.331 88.4998,388.664 107.5,378.5 Z"/></g>
<g><path style="opacity:1" fill="#fcfcfd" d="M 401.5,406.5 C 390.291,414.362 378.458,421.362 366,427.5C 361.787,422.77 358.287,417.437 355.5,411.5C 355.624,410.893 355.957,410.56 356.5,410.5C 367.976,403.592 379.643,396.926 391.5,390.5C 394.858,395.898 398.192,401.231 401.5,406.5 Z"/></g>
<g><path style="opacity:1" fill="#e5dbdb" d="M 107.5,403.5 C 107.5,411.5 107.5,419.5 107.5,427.5C 98.366,432.234 89.366,437.234 80.5,442.5C 74.8333,437.5 69.5,432.167 64.5,426.5C 67.6907,425.908 70.6907,424.741 73.5,423C 84.6977,416.235 96.031,409.735 107.5,403.5 Z"/></g>
<g><path style="opacity:0.974" fill="#838291" d="M 107.5,427.5 C 107.5,439.833 107.5,452.167 107.5,464.5C 97.895,457.894 88.895,450.56 80.5,442.5C 89.366,437.234 98.366,432.234 107.5,427.5 Z"/></g>
<g><path style="opacity:1" fill="#e4dada" d="M 316.5,432.5 C 317.675,432.281 318.675,432.614 319.5,433.5C 322.374,438.749 325.374,443.915 328.5,449C 317.167,455.667 305.833,462.333 294.5,469C 293.5,469.667 292.5,469.667 291.5,469C 287.416,463.995 284.582,458.495 283,452.5C 294.337,445.97 305.504,439.303 316.5,432.5 Z"/></g>
<g><path style="opacity:0.997" fill="#e4dada" d="M 223.5,509.5 C 220.615,509.806 217.948,509.473 215.5,508.5C 214.008,504.026 211.674,499.526 208.5,495C 220.337,487.914 232.337,481.08 244.5,474.5C 248.774,479.533 252.44,485.033 255.5,491C 244.969,497.431 234.303,503.598 223.5,509.5 Z"/></g>
</svg>
