<?xml version="1.0" encoding="UTF-8"?>
<!DOCTYPE svg PUBLIC "-//W3C//DTD SVG 1.1//EN" "http://www.w3.org/Graphics/SVG/1.1/DTD/svg11.dtd">
<svg xmlns="http://www.w3.org/2000/svg" version="1.1" width="512px" height="512px" style="shape-rendering:geometricPrecision; text-rendering:geometricPrecision; image-rendering:optimizeQuality; fill-rule:evenodd; clip-rule:evenodd" xmlns:xlink="http://www.w3.org/1999/xlink">
<g><path style="opacity:1" fill="#4b6bb4" d="M 255.5,26.5 C 255.5,36.1667 255.5,45.8333 255.5,55.5C 228.833,55.5 202.167,55.5 175.5,55.5C 175.5,60.8333 175.5,66.1667 175.5,71.5C 162.167,71.5 148.833,71.5 135.5,71.5C 135.5,68.8333 135.5,66.1667 135.5,63.5C 145.631,52.8683 155.965,42.3683 166.5,32C 189.964,14.6114 215.631,10.6114 243.5,20C 248.01,21.4182 252.01,23.5849 255.5,26.5 Z"/></g>
<g><path style="opacity:0.997" fill="#3b5891" d="M 255.5,26.5 C 258.778,27.8089 261.778,29.6422 264.5,32C 275.035,42.3683 285.369,52.8683 295.5,63.5C 295.5,74.1667 295.5,84.8333 295.5,95.5C 242.167,95.5 188.833,95.5 135.5,95.5C 135.5,87.5 135.5,79.5 135.5,71.5C 148.833,71.5 162.167,71.5 175.5,71.5C 202.167,71.5 228.833,71.5 255.5,71.5C 255.5,66.1667 255.5,60.8333 255.5,55.5C 255.5,45.8333 255.5,36.1667 255.5,26.5 Z"/></g>
<g><path style="opacity:1" fill="#e1e7f5" d="M 255.5,55.5 C 255.5,60.8333 255.5,66.1667 255.5,71.5C 228.833,71.5 202.167,71.5 175.5,71.5C 175.5,66.1667 175.5,60.8333 175.5,55.5C 202.167,55.5 228.833,55.5 255.5,55.5 Z"/></g>
<g><path style="opacity:1" fill="#779fd3" d="M 135.5,63.5 C 135.5,66.1667 135.5,68.8333 135.5,71.5C 135.5,79.5 135.5,87.5 135.5,95.5C 119.5,95.5 103.5,95.5 87.5,95.5C 87.5,196.833 87.5,298.167 87.5,399.5C 108.5,421.167 129.833,442.5 151.5,463.5C 215.5,463.5 279.5,463.5 343.5,463.5C 343.832,412.997 343.499,362.664 342.5,312.5C 355.833,298.5 369.5,284.833 383.5,271.5C 383.5,346.167 383.5,420.833 383.5,495.5C 271.5,495.5 159.5,495.5 47.5,495.5C 47.5,351.5 47.5,207.5 47.5,63.5C 76.8333,63.5 106.167,63.5 135.5,63.5 Z"/></g>
<g><path style="opacity:1" fill="#78a0d4" d="M 295.5,63.5 C 324.833,63.5 354.167,63.5 383.5,63.5C 383.5,111.167 383.5,158.833 383.5,206.5C 383.5,206.833 383.5,207.167 383.5,207.5C 370.167,220.5 356.833,233.5 343.5,246.5C 343.5,196.167 343.5,145.833 343.5,95.5C 332.833,95.5 322.167,95.5 311.5,95.5C 306.167,95.5 300.833,95.5 295.5,95.5C 295.5,84.8333 295.5,74.1667 295.5,63.5 Z"/></g>
<g><path style="opacity:1" fill="#f1f1f1" d="M 135.5,95.5 C 188.833,95.5 242.167,95.5 295.5,95.5C 300.833,95.5 306.167,95.5 311.5,95.5C 311.5,106.167 311.5,116.833 311.5,127.5C 303.5,127.5 295.5,127.5 287.5,127.5C 231.5,127.5 175.5,127.5 119.5,127.5C 119.5,151.5 119.5,175.5 119.5,199.5C 119.5,207.5 119.5,215.5 119.5,223.5C 183.5,223.5 247.5,223.5 311.5,223.5C 311.5,241.833 311.5,260.167 311.5,278.5C 298.5,292.167 285.167,305.5 271.5,318.5C 271.5,316.167 271.5,313.833 271.5,311.5C 218.167,311.5 164.833,311.5 111.5,311.5C 111.5,316.833 111.5,322.167 111.5,327.5C 161.833,327.5 212.167,327.5 262.5,327.5C 259.833,330.5 257.167,333.5 254.5,336.5C 252.5,339.167 250.167,341.5 247.5,343.5C 202.167,343.5 156.833,343.5 111.5,343.5C 111.5,348.833 111.5,354.167 111.5,359.5C 153.167,359.5 194.833,359.5 236.5,359.5C 232.372,372.55 228.039,385.55 223.5,398.5C 239.948,394.018 256.281,388.685 272.5,382.5C 284.833,369.5 297.5,356.833 310.5,344.5C 311.662,363.996 311.829,383.662 311,403.5C 308.5,414 302,420.5 291.5,423C 244.835,423.5 198.168,423.667 151.5,423.5C 151.5,415.5 151.5,407.5 151.5,399.5C 130.167,399.5 108.833,399.5 87.5,399.5C 87.5,298.167 87.5,196.833 87.5,95.5C 103.5,95.5 119.5,95.5 135.5,95.5 Z"/></g>
<g><path style="opacity:1" fill="#e1e7f5" d="M 311.5,95.5 C 322.167,95.5 332.833,95.5 343.5,95.5C 343.5,145.833 343.5,196.167 343.5,246.5C 333.167,257.5 322.5,268.167 311.5,278.5C 311.5,260.167 311.5,241.833 311.5,223.5C 311.5,191.5 311.5,159.5 311.5,127.5C 311.5,116.833 311.5,106.167 311.5,95.5 Z"/></g>
<g><path style="opacity:1" fill="#92bde4" d="M 287.5,127.5 C 287.94,143.89 287.44,160.224 286,176.5C 282.061,189.725 273.228,197.225 259.5,199C 212.835,199.5 166.168,199.667 119.5,199.5C 119.5,175.5 119.5,151.5 119.5,127.5C 175.5,127.5 231.5,127.5 287.5,127.5 Z"/></g>
<g><path style="opacity:1" fill="#78a0d4" d="M 287.5,127.5 C 295.5,127.5 303.5,127.5 311.5,127.5C 311.5,159.5 311.5,191.5 311.5,223.5C 247.5,223.5 183.5,223.5 119.5,223.5C 119.5,215.5 119.5,207.5 119.5,199.5C 166.168,199.667 212.835,199.5 259.5,199C 273.228,197.225 282.061,189.725 286,176.5C 287.44,160.224 287.94,143.89 287.5,127.5 Z"/></g>
<g><path style="opacity:1" fill="#666666" d="M 456.5,165.5 C 445.833,177.167 435.167,188.833 424.5,200.5C 423.833,199.833 423.167,199.167 422.5,198.5C 417.833,193.167 412.833,188.167 407.5,183.5C 415.075,174.423 423.742,166.59 433.5,160C 440.871,158.69 447.871,159.69 454.5,163C 455.381,163.708 456.047,164.542 456.5,165.5 Z"/></g>
<g><path style="opacity:0.977" fill="#474747" d="M 456.5,165.5 C 459.899,167.947 462.065,171.28 463,175.5C 464.356,182.576 463.356,189.243 460,195.5C 453.298,202.369 446.465,209.036 439.5,215.5C 434.194,210.86 429.194,205.86 424.5,200.5C 435.167,188.833 445.833,177.167 456.5,165.5 Z"/></g>
<g><path style="opacity:1" fill="#c9c9c9" d="M 407.5,183.5 C 412.833,188.167 417.833,193.167 422.5,198.5C 420.069,203.43 416.235,206.764 411,208.5C 404.809,205.483 399.642,201.149 395.5,195.5C 399.167,191.167 403.167,187.167 407.5,183.5 Z"/></g>
<g><path style="opacity:1" fill="#b2b2b2" d="M 395.5,195.5 C 399.642,201.149 404.809,205.483 411,208.5C 416.235,206.764 420.069,203.43 422.5,198.5C 423.167,199.167 423.833,199.833 424.5,200.5C 429.194,205.86 434.194,210.86 439.5,215.5C 431.833,223.833 423.833,231.833 415.5,239.5C 410.167,234.833 405.167,229.833 400.5,224.5C 394.527,219.194 388.86,213.527 383.5,207.5C 383.5,207.167 383.5,206.833 383.5,206.5C 387.5,202.833 391.5,199.167 395.5,195.5 Z"/></g>
<g><path style="opacity:1" fill="#676868" d="M 383.5,207.5 C 388.86,213.527 394.527,219.194 400.5,224.5C 359.417,264.082 318.75,304.249 278.5,345C 275.93,347.459 272.93,348.459 269.5,348C 265.2,344.702 261.2,341.035 257.5,337C 256.552,336.517 255.552,336.351 254.5,336.5C 257.167,333.5 259.833,330.5 262.5,327.5C 265.833,324.833 268.833,321.833 271.5,318.5C 285.167,305.5 298.5,292.167 311.5,278.5C 322.5,268.167 333.167,257.5 343.5,246.5C 356.833,233.5 370.167,220.5 383.5,207.5 Z"/></g>
<g><path style="opacity:0.997" fill="#474747" d="M 400.5,224.5 C 405.167,229.833 410.167,234.833 415.5,239.5C 405.167,250.5 394.5,261.167 383.5,271.5C 369.5,284.833 355.833,298.5 342.5,312.5C 331.5,322.833 320.833,333.5 310.5,344.5C 297.5,356.833 284.833,369.5 272.5,382.5C 271.761,382.631 271.094,382.464 270.5,382C 260.632,371.964 250.632,362.131 240.5,352.5C 242.427,349.233 244.761,346.233 247.5,343.5C 250.167,341.5 252.5,339.167 254.5,336.5C 255.552,336.351 256.552,336.517 257.5,337C 261.2,341.035 265.2,344.702 269.5,348C 272.93,348.459 275.93,347.459 278.5,345C 318.75,304.249 359.417,264.082 400.5,224.5 Z"/></g>
<g><path style="opacity:1" fill="#9ca1be" d="M 111.5,247.5 C 164.833,247.5 218.167,247.5 271.5,247.5C 271.5,252.833 271.5,258.167 271.5,263.5C 218.167,263.5 164.833,263.5 111.5,263.5C 111.5,258.167 111.5,252.833 111.5,247.5 Z"/></g>
<g><path style="opacity:1" fill="#9ca1be" d="M 111.5,279.5 C 164.833,279.5 218.167,279.5 271.5,279.5C 271.5,284.833 271.5,290.167 271.5,295.5C 218.167,295.5 164.833,295.5 111.5,295.5C 111.5,290.167 111.5,284.833 111.5,279.5 Z"/></g>
<g><path style="opacity:1" fill="#9ca1be" d="M 271.5,318.5 C 268.833,321.833 265.833,324.833 262.5,327.5C 212.167,327.5 161.833,327.5 111.5,327.5C 111.5,322.167 111.5,316.833 111.5,311.5C 164.833,311.5 218.167,311.5 271.5,311.5C 271.5,313.833 271.5,316.167 271.5,318.5 Z"/></g>
<g><path style="opacity:1" fill="#e1e6f5" d="M 342.5,312.5 C 343.499,362.664 343.832,412.997 343.5,463.5C 279.5,463.5 215.5,463.5 151.5,463.5C 151.5,450.167 151.5,436.833 151.5,423.5C 198.168,423.667 244.835,423.5 291.5,423C 302,420.5 308.5,414 311,403.5C 311.829,383.662 311.662,363.996 310.5,344.5C 320.833,333.5 331.5,322.833 342.5,312.5 Z"/></g>
<g><path style="opacity:1" fill="#9ca0be" d="M 247.5,343.5 C 244.761,346.233 242.427,349.233 240.5,352.5C 238.441,354.266 237.107,356.599 236.5,359.5C 194.833,359.5 153.167,359.5 111.5,359.5C 111.5,354.167 111.5,348.833 111.5,343.5C 156.833,343.5 202.167,343.5 247.5,343.5 Z"/></g>
<g><path style="opacity:1" fill="#b5b5b5" d="M 240.5,352.5 C 250.632,362.131 260.632,371.964 270.5,382C 271.094,382.464 271.761,382.631 272.5,382.5C 256.281,388.685 239.948,394.018 223.5,398.5C 228.039,385.55 232.372,372.55 236.5,359.5C 237.107,356.599 238.441,354.266 240.5,352.5 Z"/></g>
<g><path style="opacity:1" fill="#c7ccec" d="M 87.5,399.5 C 108.833,399.5 130.167,399.5 151.5,399.5C 151.5,407.5 151.5,415.5 151.5,423.5C 151.5,436.833 151.5,450.167 151.5,463.5C 129.833,442.5 108.5,421.167 87.5,399.5 Z"/></g>
</svg>
