<?xml version="1.0" encoding="UTF-8"?>
<!DOCTYPE svg PUBLIC "-//W3C//DTD SVG 1.1//EN" "http://www.w3.org/Graphics/SVG/1.1/DTD/svg11.dtd">
<svg xmlns="http://www.w3.org/2000/svg" version="1.1" width="512px" height="512px" style="shape-rendering:geometricPrecision; text-rendering:geometricPrecision; image-rendering:optimizeQuality; fill-rule:evenodd; clip-rule:evenodd" xmlns:xlink="http://www.w3.org/1999/xlink">
<g><path style="opacity:0.998" fill="#4285f4" d="M 243.5,25.5 C 336.849,24.5732 407.683,63.5732 456,142.5C 496.424,220.897 495.091,298.563 452,375.5C 406.004,446.195 340.504,482.862 255.5,485.5C 167.291,482.338 100.458,443.338 55,368.5C 14.5412,290.102 15.8746,212.435 59,135.5C 102.309,68.746 163.809,32.0794 243.5,25.5 Z"/></g>
<g><path style="opacity:1" fill="#fcfdfe" d="M 250.5,148.5 C 273.317,149.814 280.817,161.148 273,182.5C 261.302,194.444 249.635,194.444 238,182.5C 230.662,166.854 234.829,155.521 250.5,148.5 Z"/></g>
<g><path style="opacity:1" fill="#fefefe" d="M 249.5,218.5 C 259.51,216.754 266.677,220.421 271,229.5C 271.667,268.167 271.667,306.833 271,345.5C 265.578,356.468 257.412,359.301 246.5,354C 243.567,351.736 241.4,348.902 240,345.5C 239.333,306.833 239.333,268.167 240,229.5C 242.314,225.025 245.48,221.358 249.5,218.5 Z"/></g>
</svg>
